<svg width="320" height="301" viewBox="0 0 320 301" fill="none" xmlns="http://www.w3.org/2000/svg">
<path d="M266.267 242.633H41.2039C41.0656 242.633 40.9331 242.577 40.8354 242.48C40.7376 242.382 40.6827 242.25 40.6827 242.112V138.377C40.6809 138.29 40.7021 138.202 40.7441 138.126C40.7862 138.049 40.8477 137.985 40.9225 137.94L153.454 66.8825C153.538 66.8319 153.633 66.8052 153.73 66.8052C153.827 66.8052 153.923 66.8319 154.007 66.8825L266.58 137.992C266.655 138.036 266.719 138.101 266.762 138.177C266.807 138.254 266.829 138.341 266.829 138.429V242.163C266.816 242.3 266.751 242.426 266.645 242.514C266.54 242.601 266.404 242.643 266.267 242.633ZM41.6938 241.59H265.798V138.668L153.735 67.9248L41.6938 138.668V241.59Z" fill="white"/>
<path d="M181.149 110.452C184.891 104.271 185.84 96.7559 185.495 89.5429C185.246 81.6514 183.166 73.926 179.419 66.9761C177.897 63.9916 175.663 61.4282 172.915 59.513C169.537 57.4282 167.234 58.8355 163.93 58.2726C161.136 57.7931 158.217 55.8022 155.121 55.2915C147.98 54.0705 140.641 55.6053 134.587 59.586C123.997 66.7468 119.108 80.4328 108.164 87.0829C97.4383 93.5664 83.7106 91.6172 71.682 95.2028C66.6047 96.7246 61.874 99.2244 57.7562 102.562C54.9115 104.74 52.5836 107.52 50.9393 110.703C48.1145 116.602 48.8546 123.628 50.9393 129.851C53.024 136.251 56.547 142.359 62.009 146.33C66.5849 149.635 72.2032 151.156 77.7588 152.157C85.3158 153.522 93.1438 154.032 100.69 152.397C106.26 151.272 111.451 148.747 115.773 145.058C117.628 143.401 118.65 141.139 120.381 139.492C122.768 137.23 126.489 135.844 129.282 134.114C133.65 131.394 138.027 128.495 143.01 127.203C155.664 123.909 173.519 123.013 181.149 110.452Z" fill="black"/>
<path d="M90.611 153.939C86.2595 153.901 81.92 153.477 77.6442 152.667C72.8286 151.802 66.6683 150.343 61.6963 146.767C56.7244 143.192 52.8573 137.387 50.4599 130.09C48.7505 124.879 47.3328 117.197 50.5328 110.588C52.1911 107.322 54.5639 104.472 57.4748 102.249C61.638 98.8727 66.4221 96.3444 71.5569 94.8066C76.4164 93.523 81.38 92.672 86.3895 92.2633C94.1654 91.4085 101.514 90.5955 107.914 86.7284C113.501 83.3512 117.576 77.9727 121.527 72.7714C125.269 67.8412 129.146 62.7441 134.317 59.2209C140.457 55.1657 147.907 53.59 155.163 54.8118C156.823 55.1627 158.434 55.7158 159.958 56.4587C161.256 57.0655 162.615 57.5304 164.013 57.8451C165.069 57.9928 166.14 58.0174 167.202 57.918C169.274 57.6194 171.384 58.0585 173.165 59.1584C175.99 61.1012 178.283 63.7207 179.836 66.7779C183.633 73.7898 185.735 81.5933 185.975 89.5636C186.382 98.1108 184.933 105.199 181.556 110.734C175.302 120.97 162.502 123.586 151.182 125.899C148.326 126.483 145.636 127.026 143.125 127.682C138.632 128.839 134.567 131.383 130.616 133.842L129.574 134.52C128.531 135.135 127.489 135.708 126.395 136.271C124.361 137.202 122.465 138.404 120.756 139.846C119.982 140.638 119.285 141.499 118.67 142.42C117.945 143.513 117.1 144.52 116.148 145.423C111.76 149.212 106.468 151.803 100.784 152.949C97.439 153.646 94.028 153.978 90.611 153.939ZM150.369 55.4164C144.851 55.3876 139.451 57.0064 134.859 60.0653C129.803 63.4737 125.988 68.5082 122.288 73.376C118.286 78.6502 114.147 84.1122 108.403 87.5727C101.827 91.5545 94.0299 92.4092 86.5146 93.2431C81.5647 93.6394 76.6602 94.4766 71.8592 95.7447C66.841 97.2565 62.167 99.7352 58.1002 103.041C55.3034 105.167 53.0171 107.892 51.4084 111.015C48.3856 117.332 49.7302 124.722 51.4084 129.777C53.7432 136.959 57.5061 142.566 62.2905 146.017C67.0749 149.467 73.1413 150.916 77.8527 151.771C86.6293 153.345 94.0508 153.428 100.565 152.011C106.086 150.903 111.227 148.389 115.492 144.714C116.39 143.857 117.192 142.903 117.879 141.868C118.53 140.896 119.274 139.989 120.099 139.159C121.872 137.652 123.842 136.397 125.957 135.427C127.073 134.854 128.115 134.311 129.083 133.718L130.188 133.029C134.181 130.538 138.308 127.953 142.947 126.775C145.491 126.119 148.159 125.566 151.047 124.983C162.189 122.721 174.801 120.146 180.806 110.265C184.036 104.928 185.475 97.9857 185.079 89.6261C184.85 81.8056 182.789 74.1479 179.064 67.2679C177.589 64.3478 175.412 61.8403 172.727 59.9714C171.107 58.987 169.187 58.6172 167.317 58.9291C166.181 59.0258 165.038 58.9942 163.908 58.8352C162.441 58.5141 161.014 58.0281 159.656 57.3864C158.208 56.6964 156.682 56.182 155.112 55.8541C153.545 55.575 151.959 55.4286 150.369 55.4164Z" fill="white"/>
<path d="M223.677 100.237L218.193 120.876L231.4 123.231L238.926 95.6616C238.926 95.6616 227.189 86.6765 225.375 86.614C223.562 86.5514 223.677 100.237 223.677 100.237Z" fill="black"/>
<path d="M231.4 123.753H231.307L218.121 121.428C218.05 121.416 217.982 121.389 217.922 121.349C217.862 121.309 217.811 121.258 217.773 121.197C217.734 121.135 217.71 121.067 217.7 120.996C217.689 120.925 217.694 120.851 217.715 120.782L223.156 100.238C223.156 98.0278 223.156 87.8962 224.699 86.4056C224.786 86.3122 224.893 86.2388 225.012 86.1903C225.13 86.1417 225.259 86.1192 225.386 86.1242C227.252 86.1867 237.238 93.7646 239.228 95.276C239.311 95.3398 239.372 95.426 239.405 95.5242C239.438 95.6224 239.442 95.7281 239.417 95.8284L231.88 123.398C231.848 123.501 231.783 123.589 231.698 123.653C231.611 123.717 231.507 123.752 231.4 123.753ZM218.892 120.49L231.047 122.638L238.343 95.8597C232.704 91.5653 226.387 87.1666 225.386 87.1352C224.647 87.6878 224.187 94.4317 224.23 100.269C224.235 100.314 224.235 100.359 224.23 100.404L218.892 120.49Z" fill="white"/>
<path d="M240.938 102.572C240.83 102.582 240.722 102.582 240.615 102.572C239.677 102.343 234.757 98.8512 226.574 92.8785C224.73 91.5234 223.124 90.3664 222.926 90.2413C222.727 90.1163 221.675 90.6166 220.841 90.9085C218.662 91.6277 215.682 92.6179 213.868 92.1384C210.971 91.3671 209.053 87.1664 208.968 86.9892C208.919 86.8856 208.906 86.7678 208.933 86.6558C208.959 86.5437 209.024 86.4444 209.114 86.3742L226.304 72.8237C226.362 72.7789 226.429 72.7465 226.5 72.7286C226.573 72.7106 226.647 72.7076 226.72 72.7195C226.865 72.7497 226.992 72.8358 227.074 72.9593C227.979 74.8128 228.678 76.7596 229.159 78.7651C229.472 80.1701 229.955 81.5317 230.598 82.8198C231.285 83.5808 240.479 89.9599 246.494 94.0668C246.585 94.1255 246.654 94.2119 246.692 94.3135C246.728 94.415 246.733 94.5259 246.701 94.6297C245.628 98.4237 242.971 102.572 240.938 102.572ZM222.999 89.1991C223.147 89.1931 223.294 89.2255 223.426 89.2928C223.645 89.4075 224.739 90.2101 227.189 91.9925C231.359 95.0049 239.874 101.259 240.854 101.52C241.834 101.78 244.314 98.9033 245.576 94.6192C243.043 92.8993 230.744 84.4772 229.805 83.4245C229.273 82.8407 228.826 81.3397 228.127 78.9632C227.683 77.2462 227.115 75.5636 226.428 73.9287L210.053 86.885C210.564 87.8648 212.138 90.5645 214.087 91.0544C215.608 91.4505 218.538 90.4811 220.466 89.8452C221.279 89.5203 222.13 89.303 222.999 89.1991Z" fill="white"/>
<path d="M225.813 77.0242C225.69 78.1262 225.897 79.24 226.408 80.2242C227.252 81.7356 230.993 83.7473 230.993 83.7473L233.6 78.5356L228.492 74.8457L225.813 77.0242Z" fill="white"/>
<path d="M230.993 84.2685C230.91 84.2691 230.827 84.2475 230.754 84.206C230.348 83.9975 226.845 82.0692 225.959 80.4744C225.393 79.3919 225.165 78.1649 225.303 76.9513C225.319 76.825 225.381 76.7094 225.48 76.6282L228.159 74.4184C228.251 74.3457 228.364 74.3062 228.482 74.3062C228.599 74.3062 228.712 74.3457 228.805 74.4184L233.901 78.1083C234.001 78.1794 234.072 78.2831 234.103 78.4012C234.133 78.5193 234.121 78.6443 234.069 78.7546L231.463 83.9663C231.431 84.0284 231.387 84.0836 231.333 84.1283C231.279 84.1732 231.217 84.2066 231.15 84.2269C231.101 84.2511 231.049 84.2653 230.993 84.2685ZM226.313 77.3057C226.25 78.229 226.441 79.1521 226.866 79.974C227.408 81.0164 229.565 82.3402 230.775 83.0386L232.933 78.6816L228.513 75.4816L226.313 77.3057Z" fill="white"/>
<path d="M242.158 91.6377C242.158 91.6377 243.524 87.3329 241.115 87.0306C241.093 86.6518 240.975 86.2849 240.77 85.9654C240.565 85.6459 240.282 85.3845 239.946 85.2065C239.611 85.0284 239.236 84.9397 238.857 84.9489C238.477 84.9579 238.106 85.0646 237.78 85.2586C237.78 85.2586 237.009 82.0586 234.486 82.7048C231.964 83.3511 229.963 89.3863 230.317 90.9081C230.671 92.4299 232.631 91.5023 233.621 90.0743C233.621 90.0743 232.339 92.4508 233.194 93.0762C234.445 93.9935 235.758 92.3674 236.821 91.1791C236.821 91.1791 235.247 93.9621 237.562 94.2123C239.343 94.4104 241 90.8143 241 90.8143L242.158 91.6377Z" fill="black"/>
<path d="M237.654 94.7441H237.456C236.999 94.7441 236.561 94.5632 236.237 94.2411C235.912 93.9188 235.728 93.4814 235.726 93.0242C234.86 93.7852 233.86 94.2646 232.828 93.5038C232.604 93.3024 232.442 93.0421 232.359 92.7527C232.275 92.4634 232.277 92.1565 232.359 91.8672C231.909 92.1491 231.374 92.2634 230.847 92.1904C230.567 92.1348 230.312 91.9936 230.117 91.7863C229.92 91.579 229.793 91.3159 229.753 91.0334C229.367 89.2718 231.442 82.9552 234.319 82.2151C234.675 82.1084 235.052 82.0775 235.421 82.1241C235.791 82.1708 236.147 82.2941 236.466 82.4861C237.207 82.9949 237.768 83.7244 238.071 84.5708C238.408 84.448 238.768 84.3958 239.126 84.4173C239.485 84.4388 239.835 84.5336 240.155 84.6959C240.825 85.1313 241.302 85.8063 241.489 86.5826C241.944 86.7138 242.333 87.0068 242.585 87.406C243.512 88.8549 242.71 91.492 242.585 91.7942C242.562 91.8723 242.521 91.9435 242.465 92.0018C242.408 92.06 242.338 92.1033 242.261 92.1279C242.184 92.1544 242.101 92.1625 242.019 92.1517C241.938 92.1407 241.86 92.1112 241.792 92.0653L241.083 91.5754C240.584 92.6386 239.249 94.7441 237.654 94.7441ZM236.768 90.6581C236.881 90.6557 236.992 90.6925 237.081 90.7624C237.182 90.8392 237.253 90.9497 237.28 91.074C237.306 91.1984 237.287 91.3282 237.227 91.4399C236.998 91.8464 236.602 92.847 236.852 93.3369C236.852 93.4099 236.998 93.6392 237.571 93.7018C238.613 93.8164 239.989 91.6171 240.479 90.5747C240.511 90.5069 240.558 90.4467 240.616 90.3982C240.673 90.3497 240.74 90.3139 240.813 90.2933C240.886 90.271 240.964 90.2659 241.04 90.2786C241.115 90.2912 241.188 90.3213 241.251 90.3662L241.834 90.7727C242.115 89.8466 242.082 88.8535 241.74 87.948C241.66 87.8285 241.553 87.7288 241.429 87.6565C241.304 87.5843 241.165 87.5414 241.021 87.5311C240.908 87.5144 240.803 87.4618 240.723 87.3811C240.642 87.3004 240.589 87.1958 240.573 87.0829C240.482 86.4872 240.16 85.9514 239.677 85.5923C239.399 85.4814 239.1 85.435 238.802 85.4567C238.504 85.4784 238.215 85.5675 237.957 85.7174C237.887 85.7485 237.813 85.7645 237.737 85.7645C237.662 85.7645 237.588 85.7485 237.519 85.7174C237.451 85.6832 237.39 85.6349 237.341 85.5755C237.293 85.5163 237.257 85.4474 237.238 85.3734C237.04 84.5707 236.577 83.8581 235.924 83.3513C235.722 83.2356 235.498 83.1629 235.267 83.1378C235.035 83.1127 234.801 83.1357 234.579 83.2054C232.359 83.7682 230.494 89.4594 230.775 90.7832C230.847 91.1064 230.984 91.1376 231.056 91.148C231.486 91.0897 231.897 90.9346 232.258 90.6945C232.619 90.4544 232.921 90.1354 233.141 89.7617C233.217 89.6532 233.332 89.5776 233.461 89.5505C233.591 89.5234 233.726 89.5467 233.839 89.6158C233.95 89.6868 234.031 89.7965 234.066 89.9236C234.1 90.0508 234.086 90.1861 234.027 90.3038C233.495 91.346 233.203 92.4718 233.443 92.6489C234.173 93.1806 235.038 92.3258 236.164 91.075L236.382 90.8248C236.432 90.7723 236.492 90.7305 236.559 90.7018C236.625 90.6731 236.696 90.6582 236.768 90.6581Z" fill="white"/>
<path d="M231.015 78.7233C231.015 78.7233 229.587 76.2425 228.085 78.421C226.585 80.5995 224.781 84.6751 227.283 85.1129C229.785 85.5506 231.66 80.881 231.015 78.7233Z" fill="black"/>
<path d="M227.607 85.6448C227.472 85.6551 227.335 85.6551 227.2 85.6448C226.873 85.6054 226.562 85.4806 226.299 85.283C226.035 85.0854 225.828 84.8219 225.699 84.519C224.969 82.7784 226.585 79.6826 227.659 78.1399C227.837 77.8111 228.099 77.5344 228.417 77.3371C228.734 77.1397 229.099 77.0284 229.473 77.0142C230.619 77.0663 231.38 78.3379 231.463 78.4735L231.515 78.5881C231.688 79.6282 231.633 80.6932 231.354 81.7099C231.075 82.7266 230.579 83.6707 229.9 84.4774C229.622 84.8235 229.274 85.1066 228.879 85.3079C228.484 85.5092 228.05 85.624 227.607 85.6448ZM229.399 78.0253C229.055 78.0253 228.721 78.3901 228.514 78.6923C227.252 80.5164 226.22 83.0285 226.658 84.0813C226.72 84.221 226.819 84.3413 226.943 84.4294C227.068 84.5175 227.214 84.5702 227.367 84.5816C227.704 84.6026 228.041 84.5382 228.348 84.3943C228.654 84.2504 228.919 84.0316 229.118 83.7582C229.673 83.0904 230.085 82.3154 230.327 81.4813C230.569 80.6474 230.636 79.7724 230.525 78.9112C230.358 78.6402 229.889 78.0461 229.42 78.0253H229.399Z" fill="white"/>
<path d="M223.666 101.634C223.666 101.634 222.02 93.7645 221.863 92.3573C221.602 89.9703 222.166 86.2387 224.261 85.6551C226.356 85.0713 231.151 84.5188 230.358 86.6244C229.639 88.5423 225.438 88.9072 225.438 88.9072C225.438 88.9072 228.336 91.8256 227.899 94.7339" fill="black"/>
<path d="M223.666 102.155C223.547 102.156 223.433 102.116 223.34 102.042C223.247 101.968 223.182 101.865 223.156 101.749C223.093 101.426 221.508 93.827 221.353 92.3676C221.081 89.9286 221.602 85.8113 224.125 85.0712C225.438 84.7064 229.451 83.9559 230.629 85.238C230.807 85.4359 230.922 85.6819 230.961 85.9451C231 86.2084 230.961 86.4771 230.848 86.7181C230.254 88.3233 227.856 88.9592 226.47 89.2093C227.346 90.3142 228.753 92.4927 228.409 94.7233C228.399 94.7918 228.375 94.8575 228.34 94.9168C228.304 94.9761 228.256 95.0278 228.201 95.069C228.145 95.1101 228.082 95.1398 228.015 95.1566C227.948 95.1733 227.878 95.1766 227.81 95.1663C227.741 95.156 227.676 95.1325 227.616 95.0968C227.557 95.0611 227.505 95.0141 227.464 94.9584C227.423 94.9027 227.394 94.8395 227.376 94.7724C227.36 94.7052 227.357 94.6354 227.367 94.567C227.762 91.9507 225.085 89.2093 225.063 89.1885C224.994 89.1169 224.945 89.0274 224.922 88.9299C224.901 88.8324 224.906 88.7307 224.939 88.636C224.973 88.5436 225.035 88.4632 225.114 88.4041C225.193 88.3451 225.288 88.3098 225.386 88.3025C226.428 88.2087 229.368 87.6771 229.858 86.3533C229.972 86.0718 229.858 85.9885 229.858 85.9467C229.305 85.3318 226.419 85.5194 224.396 86.0718C222.698 86.5409 222.134 89.939 222.384 92.2113C222.541 93.5768 224.167 101.374 224.178 101.446C224.193 101.514 224.194 101.583 224.182 101.651C224.169 101.719 224.143 101.783 224.105 101.841C224.067 101.898 224.018 101.947 223.96 101.985C223.903 102.023 223.838 102.049 223.771 102.061L223.666 102.155Z" fill="white"/>
<path d="M206.801 89.491C206.24 89.4963 205.681 89.4368 205.133 89.3138C203.941 89.0066 202.824 88.4553 201.855 87.6945C200.887 86.9338 200.087 85.9803 199.505 84.8942C196.138 79.4324 198.212 76.7952 202.485 72.2089C203.383 71.2499 204.675 70.0408 206.176 68.6545C208.261 66.7157 210.605 64.4851 212.805 62.1711C215.02 59.9368 216.885 57.3823 218.34 54.5932C221.467 48.0265 220.602 37.8115 220.591 37.7073C220.583 37.6 220.608 37.4928 220.662 37.3997C220.716 37.3066 220.797 37.2321 220.894 37.1861C220.993 37.1394 221.103 37.1253 221.21 37.146C221.317 37.1666 221.414 37.2208 221.488 37.3008L254.843 71.4272C254.916 71.5035 254.963 71.6002 254.981 71.7044C254.997 71.8087 254.982 71.9155 254.936 72.0109C254.891 72.108 254.816 72.189 254.723 72.243C254.63 72.2969 254.522 72.3213 254.415 72.3131C254.238 72.3131 237.133 70.6558 230.275 74.6479C228.515 75.6983 226.829 76.8685 225.23 78.1502C223.656 79.3906 222.103 80.6832 220.654 81.9235C218.823 83.5436 216.909 85.0674 214.921 86.489C211.898 88.4903 209.188 89.491 206.801 89.491ZM221.717 39.0206C221.842 42.1476 221.831 49.6317 219.289 55.0414C217.781 57.9238 215.852 60.5656 213.565 62.8799C211.346 65.2669 208.98 67.4662 206.884 69.4154C205.404 70.7913 204.111 71.99 203.247 72.9177C199.078 77.3476 197.41 79.5157 200.39 84.3835C200.902 85.3487 201.607 86.1983 202.46 86.8797C203.314 87.5611 204.297 88.0597 205.353 88.3444C207.834 88.8864 210.845 87.9796 214.317 85.6552C216.275 84.2632 218.158 82.767 219.956 81.173C221.447 79.9222 222.978 78.6193 224.562 77.379C226.215 76.0622 227.957 74.8607 229.774 73.7829C235.81 70.2701 248.818 70.8746 253.133 71.1978L221.717 39.0206Z" fill="white"/>
<path d="M225.813 77.0244C221.968 80.0368 217.318 84.0291 214.609 86.0511C208.416 90.6792 204.498 91.1691 200.453 85.4466C196.283 79.5678 198.64 77.1079 202.872 72.5632C204.956 70.3222 209.375 66.6218 213.181 62.5254C213.181 62.5254 213.42 66.7886 217.663 71.9899C219.745 74.5266 222.613 76.2978 225.813 77.0244Z" fill="white"/>
<path d="M206.758 90.1473C206.437 90.1497 206.117 90.1253 205.8 90.0743C203.715 89.7512 201.881 88.3753 200.026 85.7486C195.637 79.5466 198.202 76.8052 202.433 72.2607C203.381 71.2183 204.674 70.0405 206.175 68.6541C208.26 66.7154 210.605 64.4848 212.805 62.1707C212.872 62.0947 212.961 62.041 213.059 62.0168C213.158 61.9927 213.262 61.9991 213.357 62.0353C213.453 62.0696 213.537 62.1315 213.597 62.213C213.659 62.2945 213.695 62.3921 213.701 62.4939C213.701 62.4939 214.003 66.6633 218.069 71.656C220.077 74.0915 222.832 75.7984 225.907 76.5134C226.005 76.5328 226.096 76.5792 226.169 76.6473C226.244 76.7154 226.297 76.8025 226.324 76.899C226.343 76.998 226.337 77.1005 226.304 77.1958C226.271 77.2912 226.213 77.3758 226.136 77.4411C224.364 78.8274 222.435 80.4118 220.56 81.944C218.413 83.7055 216.39 85.3733 214.921 86.4678C211.595 88.9798 208.99 90.1473 206.758 90.1473ZM212.826 63.6613C210.834 65.746 208.75 67.6848 206.884 69.415C205.404 70.7909 204.111 71.9896 203.246 72.9173C199.076 77.4099 196.992 79.63 200.88 85.144C202.558 87.5206 204.174 88.761 205.956 89.0424C208.114 89.3759 210.678 88.3335 214.295 85.6339C215.743 84.5916 217.766 82.8926 219.903 81.1414C221.487 79.8385 223.113 78.5042 224.656 77.2743C221.756 76.381 219.183 74.6557 217.256 72.3128C215.117 69.8183 213.6 66.8539 212.826 63.6613Z" fill="white"/>
<path d="M259.263 70.322C255.374 73.8138 246.755 70.9057 238.363 63.8073C236.213 61.9915 234.193 60.0271 232.318 57.9285C230.475 55.8688 228.775 53.6852 227.232 51.3929C220.978 42.1995 219.028 33.2979 222.947 29.7852C227.784 25.4386 239.854 30.9839 249.892 42.1787C259.93 53.3735 264.12 65.9649 259.263 70.322Z" fill="#2563EB"/>
<path d="M227.314 28.3158C233.224 28.3158 242.147 33.59 249.86 42.1894C259.908 53.3842 264.12 65.9757 259.241 70.3326C258.013 71.36 256.442 71.8882 254.843 71.8129C250.433 71.8129 244.356 68.8839 238.342 63.818C236.192 62.0024 234.171 60.0378 232.297 57.9392C230.46 55.8756 228.767 53.6884 227.231 51.3933C220.977 42.1998 219.028 33.2982 222.947 29.7855C224.169 28.7703 225.726 28.2464 227.314 28.3158ZM227.314 27.2734C225.455 27.1936 223.634 27.8191 222.217 29.0245C217.975 32.8291 219.632 42.0538 226.335 51.9561C229.522 56.6633 233.329 60.9197 237.654 64.6103C243.908 69.8219 250.162 72.8448 254.821 72.8448C256.7 72.9237 258.538 72.2824 259.961 71.0519C262.64 68.6545 263.087 64.1724 261.138 58.4396C258.793 52.1369 255.226 46.3594 250.642 41.4389C242.865 32.8499 233.735 27.2734 227.314 27.2734Z" fill="white"/>
<path d="M245.295 55.1352L238.363 63.8075C236.213 61.9918 234.193 60.0274 232.318 57.9287C230.475 55.869 228.775 53.6855 227.231 51.3932L237.258 45.2329L245.295 55.1352Z" fill="black"/>
<path d="M245.306 55.1499C246.574 54.1085 245.79 51.0573 243.553 48.335C241.317 45.6125 238.476 44.2498 237.209 45.2912C235.941 46.3325 236.726 49.3837 238.963 52.1061C241.198 54.8286 244.039 56.1913 245.306 55.1499Z" fill="white"/>
<path d="M244.231 55.9898C242.596 55.9898 240.386 54.666 238.541 52.4146C237.49 51.1791 236.708 49.7376 236.248 48.1827C235.862 46.6817 236.08 45.5039 236.863 44.868C237.644 44.2322 238.833 44.2426 240.229 44.868C241.663 45.6344 242.917 46.6966 243.908 47.9846C246.369 50.9762 247.108 54.2908 245.597 55.5416C245.206 55.8398 244.724 55.9976 244.231 55.9898ZM238.28 45.4413C238.008 45.4264 237.739 45.5075 237.519 45.6706C237.081 46.0354 236.987 46.8589 237.259 47.922C237.675 49.3335 238.385 50.6408 239.343 51.7579C241.532 54.4264 244.054 55.4686 244.951 54.7286C245.848 53.9885 245.316 51.3097 243.127 48.6413C242.206 47.4834 241.051 46.5319 239.74 45.8478C239.287 45.6116 238.789 45.4732 238.28 45.4413Z" fill="white"/>
<path d="M236.769 91.7005C236.677 91.7012 236.586 91.6759 236.508 91.6276C236.449 91.5942 236.396 91.5491 236.355 91.495C236.313 91.441 236.281 91.379 236.264 91.3129C236.247 91.2468 236.242 91.1778 236.252 91.1102C236.262 91.0425 236.286 90.9774 236.32 90.9188C236.968 89.8583 237.769 88.8994 238.698 88.0732C238.747 88.0199 238.809 87.9778 238.877 87.9497C238.944 87.9216 239.018 87.9082 239.091 87.9104C239.165 87.9125 239.236 87.9301 239.302 87.9621C239.369 87.9939 239.427 88.0395 239.475 88.0957C239.521 88.1518 239.557 88.2173 239.576 88.2879C239.597 88.3585 239.602 88.4325 239.592 88.5052C239.581 88.5778 239.556 88.6476 239.516 88.7096C239.477 88.7717 239.425 88.8248 239.365 88.8654C238.555 89.6277 237.853 90.4975 237.279 91.4504C237.227 91.5362 237.151 91.6053 237.061 91.6495C236.97 91.6938 236.868 91.7116 236.769 91.7005Z" fill="white"/>
<path d="M233.569 90.5955H233.486C233.418 90.5818 233.355 90.5551 233.297 90.5167C233.241 90.4785 233.193 90.4294 233.155 90.3722C233.117 90.3151 233.091 90.2511 233.078 90.1839C233.065 90.1167 233.065 90.0476 233.079 89.9805C233.455 88.4928 234.335 87.1816 235.57 86.2698C235.68 86.1868 235.82 86.1512 235.956 86.1708C236.093 86.1903 236.216 86.2634 236.3 86.374C236.383 86.4846 236.419 86.6235 236.399 86.7604C236.379 86.8973 236.306 87.0207 236.196 87.1036C235.174 87.8648 234.44 88.9482 234.11 90.1786C234.083 90.3007 234.014 90.4095 233.916 90.4857C233.816 90.562 233.693 90.6008 233.569 90.5955Z" fill="white"/>
<path d="M240.948 91.3359C240.843 91.3367 240.742 91.3038 240.656 91.2421C240.6 91.2026 240.552 91.1524 240.516 91.0942C240.479 91.036 240.453 90.9712 240.442 90.9034C240.43 90.8355 240.432 90.7661 240.448 90.699C240.463 90.6319 240.491 90.5685 240.531 90.5125L241.24 89.4701C241.323 89.3607 241.444 89.2869 241.581 89.2636C241.716 89.2405 241.855 89.2696 241.97 89.3451C242.081 89.4265 242.157 89.5484 242.181 89.6846C242.203 89.8207 242.173 89.9607 242.095 90.0747L241.375 91.117C241.329 91.1864 241.265 91.2428 241.19 91.2811C241.116 91.3194 241.032 91.3382 240.948 91.3359Z" fill="white"/>
<path d="M208.052 89.0946C207.939 89.0953 207.829 89.0587 207.739 88.9904C203.132 85.4881 200.275 81.2353 199.713 77.0242V76.9096C199.68 76.7991 199.685 76.6809 199.726 76.5734C199.767 76.4659 199.844 76.3752 199.943 76.3155C200 76.2776 200.065 76.2519 200.133 76.2398C200.201 76.2278 200.27 76.2295 200.337 76.2452C200.404 76.2608 200.468 76.2897 200.524 76.3305C200.579 76.3712 200.626 76.4229 200.661 76.4823C200.723 76.6093 200.759 76.7476 200.765 76.8888C201.297 80.8288 203.997 84.8315 208.395 88.1565C208.484 88.2227 208.549 88.3151 208.581 88.4205C208.614 88.5259 208.612 88.639 208.576 88.7432C208.54 88.8476 208.472 88.9377 208.381 89.0009C208.291 89.064 208.183 89.0969 208.072 89.0946H208.052Z" fill="black"/>
<path d="M205.477 72.459C205.405 72.4581 205.335 72.4418 205.27 72.4112C205.205 72.3807 205.148 72.3366 205.102 72.2819C205.053 72.2343 205.015 72.1775 204.988 72.1149C204.962 72.0522 204.949 71.985 204.949 71.917C204.949 71.8491 204.962 71.7819 204.988 71.7192C205.015 71.6566 205.053 71.5998 205.102 71.5522L210.71 66.3405C210.757 66.2906 210.813 66.2509 210.876 66.2237C210.938 66.1966 211.007 66.1825 211.075 66.1826C211.143 66.1826 211.211 66.1966 211.274 66.2237C211.336 66.2509 211.392 66.2906 211.44 66.3405C211.488 66.388 211.527 66.4448 211.552 66.5075C211.579 66.5701 211.592 66.6373 211.592 66.7053C211.592 66.7733 211.579 66.8406 211.552 66.9032C211.527 66.9659 211.488 67.0226 211.44 67.0702L205.831 72.2819C205.788 72.334 205.734 72.3766 205.672 72.4071C205.612 72.4375 205.545 72.4553 205.477 72.459Z" fill="black"/>
<path d="M206.249 73.71C206.104 73.7063 205.966 73.6465 205.863 73.5431C205.767 73.444 205.714 73.3114 205.714 73.1732C205.714 73.035 205.767 72.9023 205.863 72.8031L211.471 67.5914C211.569 67.4959 211.7 67.4424 211.836 67.4424C211.972 67.4424 212.103 67.4959 212.2 67.5914C212.25 67.6399 212.288 67.6975 212.315 67.761C212.341 67.8245 212.355 67.8927 212.355 67.9614C212.355 68.0303 212.341 68.0984 212.315 68.1618C212.288 68.2254 212.25 68.283 212.2 68.3315L206.604 73.5431C206.51 73.6402 206.383 73.6996 206.249 73.71Z" fill="black"/>
<path d="M207.135 75.148C207.064 75.1497 206.993 75.1356 206.929 75.1068C206.864 75.0779 206.805 75.035 206.759 74.9812C206.711 74.9336 206.672 74.8769 206.645 74.8143C206.619 74.7516 206.606 74.6843 206.606 74.6163C206.606 74.5484 206.619 74.4812 206.645 74.4185C206.672 74.3559 206.711 74.2991 206.759 74.2516L212.368 69.0398C212.414 68.9899 212.47 68.9503 212.533 68.923C212.596 68.8959 212.664 68.8818 212.732 68.8818C212.8 68.8818 212.868 68.8959 212.931 68.923C212.993 68.9503 213.05 68.9899 213.097 69.0398C213.145 69.0873 213.184 69.1441 213.21 69.2068C213.237 69.2694 213.25 69.3366 213.25 69.4046C213.25 69.4725 213.237 69.5399 213.21 69.6025C213.184 69.6652 213.145 69.7219 213.097 69.7695L207.489 74.9812C207.444 75.0319 207.39 75.0729 207.33 75.1015C207.268 75.1303 207.202 75.1461 207.135 75.148Z" fill="black"/>
<path d="M114.365 155.544L111.749 213.311C111.749 213.311 147.45 213.738 167.984 205.16C169.667 199.654 171.7 194.261 174.071 189.014C177.083 182.927 190.019 173.952 185.954 150.645C185.954 150.645 216.432 169.929 225.021 161.069C233.61 152.209 237.905 110.828 237.905 110.828L220.059 105.095L211.95 130.612C211.95 130.612 160.521 105.731 148.534 102.583C144.083 101.415 130.251 108.774 114.397 118.958" fill="#2563EB"/>
<path d="M147.429 119.906C147.429 119.906 155.695 145.59 157.112 156.461C158.529 167.333 158.738 185.303 158.738 185.303C158.738 185.303 171.819 145.235 170.204 120.49L147.429 119.906Z" fill="white"/>
<path d="M158.738 185.772H158.675C158.567 185.758 158.467 185.704 158.394 185.622C158.322 185.54 158.281 185.434 158.28 185.325C158.28 185.147 158.05 167.25 156.654 156.534C155.257 145.82 147.074 120.314 146.991 120.052C146.969 119.983 146.965 119.908 146.978 119.837C146.99 119.765 147.019 119.696 147.063 119.638C147.107 119.579 147.163 119.531 147.229 119.499C147.294 119.465 147.366 119.448 147.44 119.448L170.204 120.032C170.32 120.032 170.43 120.076 170.514 120.156C170.597 120.235 170.647 120.344 170.653 120.46C172.268 145.007 159.311 185.085 159.187 185.449C159.156 185.545 159.097 185.627 159.016 185.686C158.936 185.744 158.837 185.774 158.738 185.772ZM148.064 120.386C149.326 124.368 156.288 146.549 157.57 156.399C158.613 164.592 159.019 176.944 159.144 182.457C161.99 173.077 170.975 141.629 169.766 120.959L148.064 120.386Z" fill="white"/>
<path d="M105.787 243.976H204.299L168.015 205.16L111.78 213.312C111.78 213.312 105.047 228.55 105.683 239.244C105.725 240.506 105.756 242.121 105.787 243.976Z" fill="white"/>
<path d="M204.299 244.498H105.787C105.719 244.499 105.652 244.488 105.589 244.462C105.526 244.437 105.468 244.4 105.419 244.352C105.371 244.305 105.332 244.248 105.306 244.185C105.28 244.122 105.266 244.055 105.266 243.987C105.266 242.236 105.204 240.558 105.131 239.276C104.495 228.571 110.989 213.728 111.27 213.092C111.307 213.014 111.362 212.945 111.431 212.893C111.501 212.84 111.581 212.804 111.666 212.79L167.952 204.639C168.037 204.628 168.122 204.639 168.202 204.667C168.282 204.696 168.354 204.744 168.412 204.805L204.695 243.623C204.764 243.697 204.811 243.79 204.827 243.891C204.844 243.99 204.831 244.094 204.79 244.187C204.749 244.28 204.682 244.359 204.597 244.414C204.511 244.469 204.412 244.498 204.31 244.498H204.299ZM106.319 243.455H203.091L167.817 205.712L112.135 213.779C111.25 215.865 105.61 229.53 106.194 239.213C106.246 240.391 106.319 241.881 106.319 243.455Z" fill="white"/>
<path d="M167.369 106.096L170.194 120.49C170.194 120.49 170.267 128.829 161.032 128.026C158.303 127.77 155.666 126.908 153.313 125.504C150.96 124.099 148.95 122.187 147.43 119.906L143.688 94.7653C144.009 90.1875 143.637 85.5874 142.582 81.121C153.204 78.9216 160.063 69.3008 160.063 69.3008C160.063 69.3008 164.764 74.0956 166.681 75.5548C168.224 76.612 169.626 77.8626 170.851 79.276C172.863 81.7673 173.457 85.2487 173.978 88.3236C174.634 91.9733 174.958 95.6748 174.947 99.3829C174.781 106.419 167.369 106.096 167.369 106.096Z" fill="black"/>
<path d="M162.23 128.558C161.835 128.558 161.417 128.558 160.99 128.558C158.185 128.305 155.474 127.425 153.055 125.98C150.638 124.537 148.575 122.568 147.023 120.219C146.992 120.163 146.972 120.104 146.96 120.042C146.96 120.042 143.228 95.0254 143.218 94.9003C143.176 94.481 143.176 94.0585 143.218 93.639C143.46 89.4864 143.088 85.3209 142.114 81.2769C142.097 81.2168 142.094 81.1539 142.105 81.0928C142.116 81.0316 142.141 80.9734 142.175 80.9225C142.21 80.8695 142.254 80.8239 142.306 80.7881C142.358 80.7523 142.416 80.7271 142.478 80.7139C152.787 78.6293 159.594 69.1752 159.656 69.0814C159.697 69.025 159.75 68.9782 159.812 68.944C159.872 68.9098 159.941 68.8891 160.01 68.8834C160.08 68.8768 160.15 68.8865 160.215 68.9118C160.28 68.9372 160.338 68.9774 160.386 69.0293C160.438 69.0293 165.087 73.8136 166.962 75.2209C168.507 76.305 169.907 77.5797 171.132 79.0149C173.216 81.6417 173.853 85.2691 174.352 88.2814C175.016 91.9583 175.344 95.6879 175.333 99.4241C175.36 100.377 175.189 101.325 174.83 102.208C174.471 103.09 173.932 103.889 173.248 104.552C171.74 105.837 169.84 106.572 167.86 106.637L170.58 120.469C170.567 122.766 169.653 124.966 168.037 126.598C166.42 127.964 164.344 128.665 162.23 128.558ZM147.888 119.739C149.381 121.927 151.335 123.761 153.613 125.111C155.891 126.462 158.438 127.297 161.074 127.557C163.825 127.787 165.972 127.213 167.463 125.838C168.861 124.402 169.665 122.493 169.715 120.49L166.901 106.189C166.889 106.118 166.892 106.045 166.909 105.975C166.928 105.905 166.96 105.839 167.004 105.782C167.05 105.725 167.109 105.68 167.176 105.651C167.243 105.622 167.317 105.61 167.39 105.616C169.316 105.653 171.191 105.007 172.685 103.792C173.263 103.209 173.715 102.515 174.014 101.751C174.314 100.988 174.454 100.171 174.426 99.3511C174.436 95.6707 174.111 91.997 173.456 88.3752C172.946 85.3837 172.414 81.9752 170.434 79.557C169.247 78.1806 167.891 76.9585 166.4 75.9192C164.774 74.6997 161.282 71.2183 160.146 70.0299C158.655 71.9583 152.412 79.411 143.187 81.4958C144.119 85.472 144.469 89.5622 144.229 93.639C144.201 93.9859 144.201 94.3345 144.229 94.6814C144.229 94.6814 144.187 94.9421 147.888 119.739Z" fill="white"/>
<path d="M168.63 113.184C168.63 113.184 162.834 114.549 158.331 111.37C153.829 108.19 153.641 104.157 153.641 104.157C153.641 104.157 160.77 107.19 167.368 106.096L168.63 113.184Z" fill="white"/>
<path d="M165.597 113.944C162.922 114.002 160.294 113.234 158.072 111.745C153.434 108.473 153.225 104.407 153.225 104.178C153.219 104.1 153.234 104.022 153.268 103.952C153.303 103.882 153.357 103.823 153.423 103.782C153.485 103.735 153.558 103.706 153.635 103.696C153.712 103.687 153.789 103.699 153.861 103.73C153.933 103.73 160.959 106.7 167.339 105.637C167.456 105.619 167.578 105.648 167.675 105.718C167.773 105.788 167.839 105.894 167.86 106.012L169.131 113.1C169.153 113.218 169.128 113.339 169.062 113.438C168.995 113.538 168.893 113.607 168.776 113.632C167.732 113.854 166.665 113.959 165.597 113.944ZM154.267 104.876C154.917 107.385 156.473 109.565 158.635 110.995C162.231 113.538 166.755 113.079 168.141 112.819L167.036 106.617C161.667 107.357 156.206 105.606 154.267 104.876Z" fill="white"/>
<path d="M159.677 81.5483C159.677 81.5483 165.628 87.594 164.752 89.0011C163.877 90.4082 160.646 90.2103 160.646 90.2103" fill="black"/>
<path d="M161.146 90.6789H160.615C160.555 90.6749 160.495 90.6591 160.441 90.6323C160.387 90.6054 160.34 90.5683 160.3 90.5228C160.26 90.4772 160.229 90.4243 160.21 90.367C160.19 90.3098 160.183 90.2492 160.187 90.1889C160.196 90.0663 160.251 89.9518 160.343 89.87C160.435 89.788 160.555 89.7454 160.677 89.7512C161.501 89.7512 163.804 89.7512 164.368 88.7714C164.721 88.1876 162.387 84.9669 159.354 81.8815C159.311 81.8383 159.278 81.7873 159.255 81.7312C159.233 81.6752 159.221 81.6152 159.222 81.5546C159.222 81.4942 159.234 81.4343 159.257 81.3786C159.281 81.323 159.316 81.2725 159.359 81.23C159.402 81.1876 159.453 81.154 159.509 81.1313C159.566 81.1086 159.625 81.0972 159.686 81.0977C159.746 81.0982 159.806 81.1105 159.862 81.1342C159.917 81.1578 159.968 81.192 160.01 81.2352C161.876 83.1323 166.108 87.7082 165.149 89.2612C164.357 90.5225 162.179 90.6789 161.146 90.6789Z" fill="white"/>
<path d="M167.91 84.8358C168.347 84.7347 168.549 83.9889 168.36 83.17C168.171 82.3512 167.663 81.7692 167.225 81.8703C166.787 81.9714 166.586 82.7172 166.775 83.536C166.964 84.3549 167.473 84.9369 167.91 84.8358Z" fill="white"/>
<path d="M154.63 86.1854C155.068 86.0843 155.269 85.3385 155.08 84.5196C154.891 83.7007 154.383 83.1188 153.945 83.2199C153.507 83.321 153.306 84.0667 153.495 84.8856C153.684 85.7045 154.192 86.2865 154.63 86.1854Z" fill="white"/>
<path d="M147.095 86.4679C145.647 84.1226 142.26 83.7994 139.893 84.748C139.108 85.0287 138.425 85.5382 137.933 86.2109C137.441 86.8835 137.161 87.6882 137.131 88.5213C137.113 89.5444 137.297 90.5611 137.673 91.5127C138.303 93.2971 139.249 94.9532 140.466 96.4014C141.034 97.159 141.783 97.7613 142.645 98.1525C143.187 98.3442 143.775 98.3692 144.333 98.2243C144.89 98.0794 145.392 97.7713 145.772 97.3394" fill="black"/>
<path d="M143.625 98.8197C143.232 98.8193 142.843 98.7451 142.478 98.6008C141.543 98.1765 140.726 97.5286 140.101 96.7141C138.851 95.2206 137.875 93.5157 137.225 91.6797C136.827 90.6642 136.632 89.5805 136.651 88.49C136.692 87.5696 137.004 86.6819 137.55 85.9396C138.095 85.1973 138.85 84.6338 139.715 84.3206C142.321 83.2784 145.97 83.6952 147.501 86.2282C147.554 86.3352 147.565 86.458 147.532 86.5726C147.499 86.6873 147.425 86.7855 147.323 86.848C147.221 86.9105 147.1 86.933 146.982 86.9108C146.866 86.8887 146.761 86.8237 146.688 86.7285C145.386 84.6438 142.311 84.2999 140.07 85.1962C139.371 85.4442 138.761 85.8949 138.319 86.4909C137.878 87.0868 137.624 87.8011 137.589 88.5421C137.575 89.5045 137.749 90.4604 138.1 91.3565C138.712 93.0869 139.63 94.6934 140.81 96.0991C141.33 96.7913 142.014 97.343 142.801 97.7044C143.261 97.8663 143.76 97.8863 144.232 97.7617C144.704 97.6373 145.127 97.374 145.448 97.006C145.49 96.9515 145.541 96.9066 145.602 96.8739C145.661 96.8414 145.728 96.8219 145.795 96.817C145.864 96.812 145.933 96.8216 145.997 96.8452C146.06 96.8686 146.119 96.9056 146.167 96.9535C146.216 97.0014 146.254 97.059 146.279 97.1227C146.302 97.1864 146.313 97.2546 146.31 97.3227C146.306 97.3908 146.287 97.4573 146.256 97.5177C146.224 97.5781 146.179 97.6311 146.126 97.6731C145.805 98.02 145.419 98.3 144.99 98.4967C144.561 98.6935 144.096 98.8033 143.625 98.8197Z" fill="white"/>
<path d="M165.514 92.0864L158.541 92.7639C158.541 92.7639 159.99 103.542 163.127 103.25C166.264 102.958 166.275 95.1718 165.514 92.0864Z" fill="black"/>
<path d="M162.991 103.719C159.708 103.719 158.321 94.6714 158.082 92.8264C158.07 92.7657 158.072 92.7032 158.088 92.6436C158.104 92.5839 158.135 92.5289 158.175 92.4824C158.21 92.4314 158.258 92.3891 158.312 92.3584C158.366 92.3277 158.426 92.3096 158.488 92.3052L165.472 91.6277C165.581 91.6169 165.69 91.6457 165.78 91.7088C165.87 91.7718 165.935 91.8652 165.962 91.9717C166.555 94.3691 166.754 100.112 165.023 102.541C164.821 102.862 164.549 103.133 164.228 103.335C163.907 103.537 163.544 103.665 163.168 103.708L162.991 103.719ZM159.061 93.1808C159.645 97.1209 161.146 102.791 162.991 102.791H163.085C163.328 102.757 163.561 102.669 163.766 102.533C163.971 102.398 164.144 102.219 164.273 102.009C165.639 100.081 165.701 95.2551 165.159 92.6284L159.061 93.1808Z" fill="white"/>
<path d="M182.962 175.662C182.879 175.662 182.797 175.639 182.725 175.596C182.652 175.554 182.593 175.492 182.553 175.419C182.513 175.345 182.492 175.263 182.494 175.179C182.498 175.095 182.522 175.013 182.567 174.943C182.64 174.807 190.301 161.923 182.973 135.093C182.944 134.972 182.962 134.843 183.024 134.735C183.086 134.627 183.187 134.546 183.307 134.509C183.367 134.492 183.43 134.488 183.492 134.495C183.555 134.503 183.614 134.522 183.669 134.554C183.723 134.584 183.771 134.626 183.809 134.676C183.847 134.726 183.875 134.783 183.891 134.843C191.343 162.111 183.703 174.911 183.369 175.495C183.321 175.555 183.259 175.601 183.187 175.63C183.116 175.66 183.039 175.67 182.962 175.662Z" fill="white"/>
<path d="M41.2041 138.377L153.736 219.566L266.267 138.377V271.568H41.2041V138.377Z" fill="black"/>
<path d="M266.267 272.089H41.2039C41.0656 272.089 40.9331 272.033 40.8353 271.936C40.7376 271.839 40.6827 271.706 40.6827 271.567V138.377C40.6811 138.281 40.7067 138.188 40.7565 138.106C40.8064 138.025 40.8784 137.96 40.9641 137.918C41.0454 137.867 41.1392 137.84 41.2351 137.84C41.331 137.84 41.4249 137.867 41.5061 137.918L153.735 218.877L265.955 137.918C266.036 137.867 266.13 137.84 266.225 137.84C266.321 137.84 266.415 137.867 266.496 137.918C266.583 137.959 266.656 138.024 266.708 138.106C266.76 138.187 266.787 138.281 266.788 138.377V271.567C266.785 271.705 266.73 271.836 266.633 271.933C266.535 272.03 266.405 272.086 266.267 272.089ZM41.6937 271.046H265.798V139.398L154.038 219.981C153.948 220.047 153.841 220.082 153.73 220.082C153.62 220.082 153.512 220.047 153.423 219.981L41.6937 139.398V271.046Z" fill="white"/>
<path d="M41.2034 272.089C41.1097 272.089 41.0175 272.064 40.9368 272.016C40.856 271.969 40.7898 271.9 40.7447 271.818C40.6799 271.697 40.6644 271.556 40.7012 271.424C40.7382 271.292 40.8247 271.178 40.9427 271.109L143.906 212.206C144.026 212.138 144.168 212.121 144.301 212.159C144.434 212.196 144.547 212.284 144.615 212.404C144.649 212.463 144.673 212.527 144.683 212.596C144.692 212.664 144.688 212.732 144.671 212.798C144.653 212.865 144.622 212.926 144.58 212.98C144.539 213.034 144.486 213.08 144.427 213.113L41.4535 272.016C41.3774 272.06 41.2915 272.085 41.2034 272.089Z" fill="white"/>
<path d="M266.267 272.089C266.175 272.086 266.086 272.061 266.006 272.016L163.043 213.113C162.923 213.046 162.834 212.932 162.797 212.8C162.761 212.667 162.777 212.525 162.845 212.405C162.914 212.287 163.028 212.2 163.16 212.162C163.292 212.126 163.433 212.142 163.554 212.207L266.516 271.109C266.636 271.178 266.725 271.29 266.762 271.423C266.8 271.556 266.782 271.698 266.714 271.818C266.671 271.9 266.607 271.968 266.528 272.015C266.449 272.063 266.359 272.089 266.267 272.089Z" fill="white"/>
<path d="M94.8536 210.476C94.8536 210.476 99.4086 222.337 100.482 222.984C101.556 223.63 114.241 228.822 113.334 231.25C112.427 233.679 106.715 230.718 106.715 230.718C106.715 230.718 114.94 240.235 112.771 241.913C110.604 243.591 103.307 247 100.378 245.613C97.449 244.227 82.8458 226.132 79.75 218.272" fill="black"/>
<path d="M102.149 246.489C101.47 246.509 100.794 246.382 100.169 246.114C97.042 244.623 82.3449 226.309 79.27 218.492C79.2454 218.427 79.2337 218.359 79.2355 218.29C79.2374 218.221 79.2528 218.154 79.2808 218.09C79.3089 218.027 79.3492 217.971 79.3991 217.923C79.4492 217.876 79.508 217.839 79.5723 217.814C79.6366 217.789 79.7053 217.777 79.7741 217.78C79.843 217.782 79.9108 217.797 79.9737 217.825C80.0366 217.853 80.0934 217.893 80.1407 217.943C80.1882 217.994 80.2253 218.052 80.2498 218.117C83.3769 226.132 98.0739 243.967 100.607 245.217C103.14 246.468 110.259 243.3 112.469 241.58C112.517 241.535 112.555 241.482 112.582 241.423C112.609 241.364 112.623 241.301 112.625 241.236C112.823 239.15 108.143 233.241 106.371 231.135C106.292 231.043 106.247 230.927 106.244 230.805C106.242 230.684 106.281 230.565 106.357 230.47C106.432 230.375 106.538 230.31 106.657 230.284C106.776 230.26 106.899 230.277 107.007 230.333C108.049 230.875 111.03 232.168 112.364 231.656C112.486 231.615 112.598 231.547 112.69 231.456C112.782 231.367 112.853 231.256 112.896 231.135C113.146 230.457 111.499 228.759 102.212 224.454C101.086 223.933 100.492 223.651 100.252 223.495C99.1267 222.775 95.4993 213.52 94.4153 210.705C94.3902 210.641 94.3781 210.572 94.3798 210.503C94.3814 210.435 94.3967 210.367 94.4248 210.303C94.4529 210.24 94.4933 210.184 94.5435 210.136C94.5938 210.089 94.6529 210.052 94.7176 210.028C94.8462 209.981 94.9883 209.985 95.1132 210.042C95.238 210.098 95.3356 210.202 95.3847 210.33C97.5527 215.969 100.18 222.108 100.826 222.629C101.003 222.744 101.764 223.098 102.65 223.505C110.134 226.966 114.616 229.52 113.876 231.5C113.779 231.76 113.629 231.997 113.432 232.193C113.237 232.389 113 232.541 112.739 232.636C111.334 232.923 109.873 232.755 108.571 232.157C110.582 234.669 113.907 239.182 113.698 241.33C113.682 241.531 113.624 241.728 113.53 241.907C113.435 242.087 113.304 242.244 113.146 242.372C111.426 243.675 105.881 246.489 102.149 246.489Z" fill="white"/>
<path d="M114.397 119C87.5883 136.219 54.9838 161.559 52.232 167.479C47.8333 176.861 80.7297 224.037 80.7297 224.037L98.5433 212.737L82.2619 177.371L114.366 155.534" fill="#2563EB"/>
<path d="M93.8107 170.075C93.7335 170.077 93.6568 170.059 93.5877 170.025C93.5187 169.99 93.4592 169.939 93.4145 169.877C93.3442 169.772 93.3168 169.644 93.3381 169.52C93.3595 169.396 93.4279 169.284 93.5292 169.21L129.574 143.974C129.625 143.936 129.682 143.91 129.744 143.895C129.805 143.881 129.869 143.879 129.932 143.89C129.993 143.899 130.053 143.923 130.107 143.958C130.16 143.991 130.205 144.037 130.241 144.089C130.277 144.14 130.301 144.199 130.314 144.26C130.327 144.322 130.328 144.386 130.317 144.449C130.305 144.51 130.281 144.57 130.246 144.622C130.212 144.675 130.167 144.72 130.116 144.756L94.0817 169.991C94.0031 170.049 93.9077 170.078 93.8107 170.075Z" fill="white"/>
<path d="M250.423 241.59L294.108 214.854L257.094 230.27L250.423 241.59Z" fill="white"/>
<path d="M250.422 242.111C250.354 242.11 250.287 242.096 250.225 242.069C250.162 242.043 250.106 242.003 250.058 241.954C249.975 241.873 249.922 241.766 249.907 241.651C249.892 241.536 249.915 241.418 249.975 241.319L256.646 230.01C256.698 229.911 256.784 229.833 256.885 229.79L293.941 214.374C294.062 214.323 294.199 214.321 294.322 214.366C294.445 214.412 294.547 214.503 294.606 214.62C294.666 214.737 294.679 214.873 294.642 215C294.605 215.126 294.523 215.233 294.409 215.302L250.694 241.997C250.614 242.056 250.521 242.095 250.422 242.111ZM257.448 230.645L251.935 240.026L288.094 217.897L257.448 230.645Z" fill="white"/>
<path d="M271.374 238.046C271.298 238.049 271.223 238.03 271.156 237.994L256.876 230.698C256.793 230.659 256.725 230.596 256.679 230.518C256.632 230.44 256.61 230.351 256.615 230.26C256.619 230.169 256.65 230.081 256.702 230.006C256.752 229.93 256.824 229.871 256.907 229.833L293.942 214.416C294.042 214.376 294.154 214.372 294.258 214.403C294.363 214.436 294.453 214.503 294.514 214.594C294.576 214.683 294.604 214.793 294.593 214.902C294.582 215.011 294.532 215.113 294.452 215.187L271.718 237.911C271.675 237.957 271.62 237.993 271.561 238.016C271.502 238.04 271.438 238.05 271.374 238.046ZM258.219 230.322L271.28 236.994L292.065 216.22L258.219 230.322Z" fill="white"/>
<path d="M247.036 226.559C246.955 226.559 246.876 226.537 246.807 226.496L236.102 220.388C236.017 220.336 235.95 220.258 235.911 220.167C235.871 220.075 235.862 219.972 235.884 219.875C235.905 219.777 235.957 219.689 236.032 219.622C236.106 219.555 236.2 219.514 236.3 219.503L294.025 214.385C294.144 214.375 294.263 214.411 294.357 214.483C294.451 214.557 294.515 214.663 294.535 214.781C294.555 214.899 294.529 215.021 294.464 215.121C294.398 215.221 294.298 215.293 294.181 215.323L247.151 226.549L247.036 226.559ZM237.894 220.305L247.108 225.569L287.688 215.937L237.894 220.305Z" fill="white"/>
<path d="M250.423 242.069H250.35C250.255 242.055 250.166 242.013 250.096 241.948C250.026 241.882 249.976 241.798 249.954 241.705L246.618 226.195C246.604 226.134 246.603 226.071 246.613 226.011C246.624 225.95 246.645 225.892 246.679 225.839C246.711 225.787 246.754 225.742 246.805 225.706C246.856 225.67 246.912 225.645 246.973 225.631L294.003 214.405C294.122 214.367 294.252 214.377 294.363 214.434C294.474 214.49 294.559 214.589 294.598 214.708C294.637 214.827 294.626 214.956 294.57 215.067C294.513 215.178 294.414 215.263 294.295 215.302L257.459 230.655L250.871 241.829C250.828 241.908 250.762 241.973 250.682 242.015C250.603 242.058 250.513 242.077 250.423 242.069ZM247.64 226.435L250.631 240.287L256.677 230.019C256.733 229.933 256.813 229.864 256.907 229.822L288.447 216.689L247.64 226.435Z" fill="white"/>
<path d="M240.782 243.747C240.671 243.745 240.563 243.707 240.474 243.639C240.386 243.57 240.323 243.476 240.292 243.369C240.262 243.261 240.266 243.147 240.306 243.042C240.345 242.938 240.418 242.849 240.511 242.788L242.251 241.674C242.368 241.597 242.51 241.571 242.645 241.599C242.781 241.627 242.9 241.708 242.975 241.825C243.052 241.941 243.079 242.082 243.05 242.218C243.022 242.354 242.941 242.472 242.825 242.549L241.063 243.675C240.978 243.723 240.88 243.748 240.782 243.747Z" fill="white" fill-opacity="0.6"/>
<path d="M82.9913 291.508C82.8539 291.505 82.7229 291.45 82.6258 291.352C82.5286 291.255 82.4728 291.124 82.4701 290.987C82.4701 290.85 82.5237 290.719 82.6191 290.621C82.7146 290.524 82.8445 290.468 82.9809 290.465L85.4617 290.413L87.1399 290.361C87.2767 290.361 87.4086 290.412 87.5092 290.505C87.6097 290.598 87.6714 290.725 87.6819 290.861C87.6847 290.931 87.6736 291 87.6494 291.065C87.6251 291.13 87.5881 291.189 87.5405 291.24C87.4928 291.291 87.4358 291.331 87.3723 291.359C87.309 291.387 87.2405 291.402 87.1712 291.403L85.493 291.455L83.0018 291.508H82.9913ZM78.822 291.508C77.4044 291.508 76.0077 291.445 74.6526 291.393C74.5153 291.385 74.3865 291.324 74.2932 291.223C74.1999 291.122 74.1494 290.988 74.1523 290.851C74.155 290.782 74.1711 290.715 74.1998 290.653C74.2285 290.591 74.2692 290.535 74.3195 290.488C74.3699 290.442 74.4289 290.405 74.4932 290.383C74.5575 290.359 74.6258 290.348 74.6943 290.35C76.0494 290.403 77.4357 290.444 78.8637 290.465C79.0019 290.465 79.1345 290.52 79.2322 290.618C79.3299 290.715 79.3848 290.848 79.3848 290.987C79.3835 291.057 79.3681 291.126 79.3394 291.191C79.3108 291.256 79.2696 291.314 79.2181 291.363C79.1667 291.412 79.106 291.45 79.0399 291.474C78.9736 291.499 78.9031 291.51 78.8324 291.508H78.822ZM91.3301 291.226C91.1981 291.226 91.0713 291.175 90.9761 291.084C90.881 290.992 90.8247 290.868 90.8193 290.736C90.8151 290.668 90.8244 290.599 90.8468 290.534C90.8692 290.469 90.9041 290.41 90.9496 290.359C90.9951 290.307 91.0504 290.265 91.1121 290.235C91.1737 290.205 91.2408 290.188 91.3093 290.184C92.6955 290.121 94.0819 290.038 95.4787 289.944C95.5474 289.938 95.6166 289.947 95.6821 289.968C95.7476 289.99 95.808 290.025 95.8595 290.071C95.9112 290.117 95.9531 290.173 95.9825 290.234C96.012 290.297 96.0285 290.365 96.0311 290.434C96.0367 290.501 96.0288 290.571 96.0077 290.635C95.9865 290.7 95.9525 290.76 95.9079 290.812C95.8632 290.863 95.8086 290.905 95.7474 290.935C95.6862 290.965 95.6197 290.982 95.5517 290.987C94.1653 291.08 92.779 291.163 91.3822 291.226H91.3301ZM70.5353 291.153C69.1177 291.048 67.7314 290.924 66.3659 290.778C66.2294 290.762 66.1044 290.693 66.0186 290.586C65.9326 290.479 65.8926 290.341 65.9073 290.204C65.9123 290.136 65.9314 290.069 65.9635 290.007C65.9957 289.947 66.04 289.893 66.0938 289.85C66.1477 289.807 66.2097 289.776 66.2763 289.758C66.3429 289.739 66.4124 289.736 66.4806 289.746C67.8253 289.882 69.2012 290.006 70.65 290.111C70.7882 290.111 70.9207 290.165 71.0185 290.264C71.1163 290.361 71.1711 290.494 71.1711 290.632C71.1711 290.771 71.1163 290.902 71.0185 291.001C70.9207 291.098 70.7882 291.153 70.65 291.153H70.5353ZM99.6481 290.684C99.5098 290.684 99.3773 290.629 99.2796 290.532C99.1818 290.433 99.1269 290.301 99.1269 290.163C99.1269 290.025 99.1818 289.892 99.2796 289.794C99.3773 289.697 99.5098 289.642 99.6481 289.642C101.034 289.527 102.41 289.402 103.817 289.267C103.955 289.257 104.09 289.3 104.197 289.388C104.303 289.474 104.373 289.599 104.391 289.736C104.398 289.804 104.391 289.873 104.372 289.939C104.352 290.005 104.319 290.067 104.276 290.12C104.232 290.173 104.178 290.217 104.118 290.25C104.057 290.282 103.99 290.303 103.922 290.309C102.532 290.441 101.142 290.566 99.7523 290.684H99.6481ZM62.2487 290.257H62.1758C60.779 290.048 59.3926 289.819 58.0064 289.568C57.9379 289.555 57.8727 289.53 57.8145 289.492C57.7562 289.453 57.706 289.404 57.6668 289.346C57.6277 289.288 57.6002 289.224 57.5859 289.155C57.5718 289.087 57.5712 289.017 57.5842 288.949C57.5972 288.88 57.6236 288.815 57.6617 288.757C57.7 288.698 57.7493 288.648 57.8069 288.61C57.8644 288.57 57.9292 288.543 57.9974 288.528C58.0656 288.514 58.136 288.513 58.2044 288.526C59.5282 288.777 60.9041 289.006 62.2904 289.204C62.3581 289.214 62.4233 289.238 62.482 289.273C62.5407 289.308 62.5919 289.355 62.6325 289.411C62.6732 289.466 62.7026 289.528 62.719 289.594C62.7354 289.661 62.7386 289.731 62.7282 289.798C62.7113 289.921 62.6521 290.034 62.5607 290.118C62.4694 290.201 62.3517 290.251 62.2279 290.257H62.2487ZM107.945 289.882C107.877 289.885 107.808 289.877 107.743 289.854C107.678 289.831 107.619 289.797 107.567 289.751C107.516 289.706 107.474 289.651 107.444 289.589C107.414 289.527 107.397 289.46 107.393 289.391C107.389 289.323 107.398 289.255 107.42 289.19C107.443 289.125 107.478 289.065 107.523 289.014C107.569 288.963 107.624 288.921 107.685 288.891C107.747 288.86 107.814 288.843 107.883 288.839C109.273 288.686 110.662 288.52 112.052 288.339C112.19 288.321 112.33 288.359 112.44 288.443C112.55 288.528 112.623 288.654 112.641 288.792C112.658 288.931 112.621 289.07 112.536 289.18C112.451 289.291 112.326 289.363 112.187 289.381L108.018 289.871L107.945 289.882ZM116.211 288.839C116.085 288.839 115.963 288.792 115.868 288.71C115.773 288.629 115.709 288.515 115.69 288.391C115.679 288.322 115.683 288.253 115.7 288.186C115.717 288.118 115.747 288.055 115.789 288C115.83 287.945 115.883 287.898 115.943 287.864C116.003 287.828 116.069 287.805 116.138 287.797L120.244 287.181C120.311 287.17 120.381 287.172 120.448 287.187C120.514 287.202 120.576 287.23 120.633 287.27C120.688 287.31 120.734 287.361 120.77 287.418C120.805 287.477 120.829 287.541 120.839 287.61C120.851 287.677 120.85 287.747 120.835 287.814C120.82 287.881 120.791 287.945 120.751 288.001C120.711 288.057 120.661 288.105 120.602 288.141C120.545 288.178 120.479 288.202 120.412 288.214L116.242 288.829L116.211 288.839ZM54.0767 288.735H53.9517C52.5653 288.412 51.1999 288.057 49.8969 287.693C49.7657 287.652 49.6555 287.561 49.5895 287.441C49.5234 287.32 49.5066 287.179 49.5425 287.046C49.5617 286.98 49.5936 286.92 49.6364 286.866C49.6793 286.813 49.7322 286.768 49.7922 286.735C49.8522 286.703 49.9181 286.682 49.9861 286.674C50.0542 286.667 50.123 286.672 50.1887 286.692C51.4813 287.057 52.8259 287.411 54.1913 287.734C54.2584 287.749 54.3217 287.777 54.3776 287.816C54.4336 287.856 54.481 287.907 54.517 287.965C54.553 288.024 54.5767 288.088 54.5871 288.157C54.5974 288.224 54.594 288.293 54.5771 288.36C54.5426 288.469 54.4728 288.565 54.3786 288.631C54.2843 288.697 54.1708 288.73 54.0559 288.724L54.0767 288.735ZM124.435 287.536C124.313 287.538 124.194 287.496 124.101 287.417C124.007 287.339 123.944 287.229 123.924 287.109C123.903 286.973 123.935 286.832 124.015 286.72C124.095 286.607 124.216 286.53 124.351 286.505L128.448 285.775C128.515 285.761 128.585 285.761 128.652 285.775C128.719 285.789 128.783 285.816 128.839 285.855C128.895 285.894 128.943 285.944 128.98 286.002C129.016 286.059 129.041 286.124 129.053 286.191C129.077 286.327 129.047 286.467 128.969 286.579C128.891 286.693 128.771 286.771 128.636 286.797L124.529 287.536H124.435ZM46.0611 286.4C46.0059 286.41 45.9494 286.41 45.8942 286.4C44.5601 285.931 43.2363 285.42 41.9751 284.888C41.912 284.861 41.8549 284.823 41.807 284.773C41.7592 284.723 41.7216 284.665 41.6964 284.601C41.6712 284.537 41.659 284.469 41.6603 284.4C41.6616 284.332 41.6764 284.264 41.7041 284.201C41.759 284.075 41.8608 283.977 41.9874 283.926C42.1141 283.877 42.2557 283.878 42.3816 283.93C43.622 284.451 44.925 284.972 46.2383 285.42C46.3765 285.444 46.4998 285.521 46.5808 285.635C46.6619 285.75 46.6944 285.892 46.6708 286.03C46.6473 286.168 46.5699 286.292 46.4555 286.373C46.3412 286.454 46.1993 286.486 46.0611 286.463V286.4ZM132.575 286.004C132.456 286.002 132.341 285.96 132.248 285.884C132.155 285.808 132.091 285.704 132.065 285.587C132.051 285.52 132.051 285.451 132.064 285.384C132.077 285.317 132.103 285.253 132.141 285.195C132.178 285.138 132.227 285.09 132.284 285.051C132.341 285.013 132.404 284.986 132.471 284.972L136.547 284.118C136.614 284.104 136.683 284.104 136.75 284.117C136.817 284.13 136.881 284.155 136.938 284.193C136.996 284.231 137.045 284.28 137.083 284.336C137.121 284.393 137.148 284.457 137.162 284.524C137.177 284.59 137.18 284.659 137.168 284.726C137.156 284.793 137.131 284.857 137.094 284.914C137.056 284.972 137.009 285.021 136.953 285.06C136.896 285.098 136.833 285.125 136.765 285.139L132.68 285.993L132.575 286.004ZM140.727 284.253C140.658 284.26 140.589 284.254 140.523 284.235C140.457 284.216 140.396 284.184 140.342 284.14C140.288 284.097 140.243 284.044 140.21 283.984C140.176 283.924 140.156 283.857 140.148 283.789C140.141 283.721 140.147 283.652 140.167 283.585C140.185 283.519 140.217 283.457 140.261 283.404C140.304 283.35 140.357 283.306 140.417 283.272C140.478 283.239 140.544 283.218 140.612 283.211C141.968 282.898 143.311 282.585 144.656 282.252C144.79 282.22 144.932 282.243 145.049 282.315C145.165 282.388 145.25 282.504 145.282 282.638C145.298 282.705 145.303 282.774 145.292 282.843C145.282 282.911 145.258 282.977 145.223 283.035C145.186 283.095 145.14 283.147 145.083 283.187C145.027 283.228 144.963 283.257 144.896 283.273C143.551 283.597 142.207 283.919 140.841 284.221L140.727 284.253ZM38.379 283.137C38.2953 283.135 38.2134 283.113 38.1392 283.075C36.878 282.429 35.6481 281.731 34.4806 280.99C34.4224 280.954 34.3718 280.907 34.3319 280.851C34.292 280.795 34.2634 280.732 34.2479 280.666C34.2324 280.599 34.2303 280.53 34.2416 280.461C34.2528 280.394 34.2775 280.33 34.3138 280.271C34.3491 280.212 34.3959 280.16 34.4515 280.12C34.5072 280.079 34.5706 280.05 34.6378 280.034C34.7051 280.018 34.7747 280.017 34.8426 280.029C34.9106 280.041 34.9753 280.067 35.0331 280.105C36.1692 280.803 37.3784 281.48 38.6187 282.115C38.757 282.148 38.8768 282.233 38.9522 282.353C39.0274 282.473 39.0518 282.619 39.02 282.757C38.9882 282.895 38.9028 283.015 38.7826 283.091C38.6624 283.165 38.5172 283.19 38.379 283.159V283.137ZM148.867 282.283C148.73 282.299 148.59 282.26 148.481 282.174C148.371 282.088 148.301 281.962 148.283 281.824C148.267 281.686 148.306 281.547 148.393 281.438C148.478 281.327 148.604 281.257 148.743 281.241L152.765 280.198C152.835 280.18 152.906 280.176 152.975 280.186C153.045 280.195 153.114 280.219 153.174 280.255C153.235 280.291 153.289 280.338 153.331 280.394C153.374 280.451 153.404 280.515 153.423 280.584C153.44 280.652 153.444 280.723 153.435 280.793C153.425 280.864 153.401 280.931 153.365 280.992C153.33 281.053 153.282 281.106 153.226 281.149C153.17 281.191 153.105 281.223 153.037 281.241C151.703 281.602 150.358 281.949 149.003 282.283C148.953 282.297 148.897 282.297 148.847 282.283H148.867ZM156.915 280.105C156.801 280.106 156.691 280.07 156.6 280.002C156.509 279.934 156.444 279.838 156.414 279.73C156.378 279.595 156.397 279.453 156.465 279.332C156.533 279.211 156.645 279.122 156.778 279.083L160.771 277.926C160.903 277.886 161.044 277.9 161.164 277.965C161.285 278.03 161.376 278.139 161.417 278.27C161.438 278.335 161.445 278.404 161.438 278.473C161.431 278.541 161.411 278.608 161.378 278.668C161.345 278.728 161.3 278.781 161.245 278.825C161.191 278.867 161.13 278.898 161.063 278.915C159.74 279.312 158.405 279.708 157.061 280.083C157.008 280.104 156.95 280.111 156.894 280.105H156.915ZM31.3431 278.76C31.2303 278.761 31.1203 278.724 31.0305 278.655C29.8943 277.811 28.7999 276.914 27.7784 275.987C27.7295 275.938 27.6907 275.881 27.6643 275.817C27.6378 275.754 27.6242 275.686 27.6242 275.617C27.6242 275.548 27.6378 275.48 27.6643 275.416C27.6907 275.353 27.7295 275.295 27.7784 275.247C27.8259 275.199 27.8827 275.16 27.9453 275.134C28.008 275.107 28.0752 275.094 28.1431 275.094C28.2111 275.094 28.2784 275.107 28.3411 275.134C28.4037 275.16 28.4604 275.199 28.508 275.247C29.5235 276.168 30.5846 277.038 31.6871 277.853C31.7977 277.936 31.8708 278.059 31.8904 278.195C31.9099 278.333 31.8743 278.472 31.7913 278.582C31.7359 278.645 31.6664 278.694 31.5885 278.725C31.5106 278.755 31.4266 278.767 31.3431 278.76ZM164.878 277.718C164.768 277.719 164.66 277.684 164.571 277.618C164.482 277.552 164.418 277.459 164.388 277.352C164.368 277.286 164.359 277.217 164.365 277.149C164.371 277.08 164.391 277.014 164.423 276.952C164.455 276.892 164.498 276.838 164.551 276.793C164.604 276.749 164.666 276.715 164.732 276.696C166.066 276.29 167.38 275.861 168.693 275.445C168.758 275.423 168.827 275.413 168.895 275.418C168.964 275.422 169.031 275.441 169.092 275.472C169.154 275.504 169.208 275.546 169.252 275.599C169.296 275.652 169.33 275.712 169.349 275.778C169.393 275.91 169.382 276.053 169.319 276.176C169.256 276.299 169.147 276.392 169.016 276.435C167.703 276.863 166.378 277.28 165.035 277.696C164.985 277.717 164.932 277.727 164.878 277.727V277.718ZM172.81 275.143C172.673 275.165 172.531 275.131 172.417 275.05C172.304 274.967 172.228 274.843 172.205 274.705C172.184 274.566 172.217 274.426 172.3 274.312C172.382 274.199 172.505 274.122 172.643 274.1C173.968 273.652 175.28 273.204 176.573 272.746C176.705 272.701 176.848 272.711 176.972 272.772C177.097 272.832 177.193 272.938 177.24 273.068C177.263 273.132 177.274 273.2 177.27 273.267C177.267 273.335 177.25 273.401 177.222 273.463C177.193 273.523 177.151 273.578 177.101 273.624C177.05 273.668 176.991 273.702 176.928 273.725C175.625 274.184 174.311 274.642 172.977 275.091L172.81 275.143ZM25.2038 273.162C25.1291 273.162 25.0553 273.146 24.9872 273.115C24.919 273.084 24.8579 273.04 24.8077 272.985C23.8711 271.937 22.9941 270.838 22.181 269.692C22.1339 269.637 22.0989 269.573 22.0779 269.504C22.0571 269.434 22.0507 269.361 22.0594 269.29C22.0681 269.218 22.0917 269.149 22.1285 269.086C22.1653 269.025 22.2147 268.971 22.2734 268.928C22.3321 268.886 22.399 268.857 22.4697 268.842C22.5404 268.827 22.6134 268.828 22.6841 268.842C22.7548 268.857 22.8216 268.886 22.8804 268.928C22.9391 268.971 22.9884 269.025 23.0253 269.086C23.8176 270.202 24.6738 271.27 25.5894 272.286C25.6856 272.386 25.7393 272.519 25.7393 272.657C25.7393 272.794 25.6856 272.927 25.5894 273.027C25.5385 273.075 25.4779 273.114 25.4117 273.139C25.3453 273.164 25.2746 273.176 25.2038 273.173V273.162ZM180.669 272.391C180.563 272.388 180.46 272.353 180.373 272.293C180.285 272.231 180.218 272.146 180.18 272.047C180.133 271.917 180.14 271.774 180.198 271.648C180.256 271.523 180.362 271.427 180.492 271.38C181.816 270.9 183.108 270.411 184.401 269.931C184.525 269.899 184.656 269.915 184.77 269.974C184.883 270.033 184.971 270.133 185.016 270.253C185.062 270.373 185.061 270.505 185.015 270.625C184.969 270.744 184.88 270.842 184.765 270.9C183.474 271.39 182.171 271.87 180.847 272.349C180.794 272.383 180.732 272.401 180.669 272.401V272.391ZM188.466 269.441C188.398 269.454 188.328 269.452 188.26 269.438C188.191 269.422 188.128 269.394 188.07 269.354C188.013 269.315 187.964 269.265 187.927 269.206C187.89 269.148 187.864 269.082 187.851 269.014C187.839 268.946 187.84 268.875 187.855 268.807C187.87 268.739 187.897 268.674 187.937 268.618C187.977 268.561 188.028 268.512 188.087 268.474C188.145 268.437 188.21 268.411 188.279 268.399L192.146 266.867C192.273 266.815 192.415 266.815 192.543 266.868C192.669 266.921 192.77 267.021 192.823 267.148C192.876 267.277 192.876 267.42 192.823 267.549C192.77 267.678 192.669 267.78 192.542 267.835L188.664 269.42C188.6 269.441 188.533 269.452 188.466 269.452V269.441ZM20.3881 266.398C20.2941 266.399 20.2016 266.374 20.1206 266.326C20.0398 266.279 19.9736 266.21 19.9295 266.126C19.2484 264.895 18.6393 263.625 18.1054 262.322C18.0528 262.193 18.0535 262.05 18.1073 261.921C18.1611 261.793 18.2634 261.692 18.392 261.639C18.5205 261.587 18.6647 261.587 18.7927 261.641C18.9208 261.695 19.0223 261.798 19.0748 261.926C19.587 263.195 20.1789 264.431 20.8468 265.626C20.9107 265.748 20.9246 265.891 20.8857 266.023C20.8469 266.154 20.7581 266.267 20.6383 266.335C20.561 266.375 20.4752 266.397 20.3881 266.398ZM196.2 266.324C196.097 266.327 195.995 266.297 195.909 266.239C195.824 266.181 195.758 266.098 195.721 266.001C195.668 265.875 195.667 265.734 195.718 265.607C195.769 265.481 195.867 265.379 195.993 265.324C197.295 264.781 198.577 264.282 199.828 263.698C199.955 263.642 200.098 263.64 200.228 263.691C200.357 263.741 200.461 263.842 200.516 263.968C200.571 264.096 200.573 264.24 200.522 264.368C200.471 264.498 200.372 264.601 200.244 264.657L196.399 266.283C196.336 266.311 196.269 266.326 196.2 266.324ZM203.851 263.02C203.751 263.019 203.653 262.99 203.569 262.937C203.484 262.883 203.416 262.807 203.372 262.718C203.343 262.655 203.327 262.587 203.324 262.518C203.322 262.45 203.334 262.38 203.36 262.315C203.385 262.252 203.424 262.193 203.473 262.144C203.521 262.095 203.578 262.056 203.643 262.03C204.935 261.446 206.197 260.883 207.426 260.31C207.553 260.252 207.696 260.246 207.826 260.294C207.956 260.343 208.062 260.44 208.12 260.565C208.177 260.692 208.184 260.835 208.135 260.965C208.088 261.095 207.99 261.201 207.864 261.258C206.624 261.832 205.362 262.405 204.06 262.978C203.995 263.008 203.923 263.023 203.851 263.02ZM211.429 259.539C211.331 259.541 211.234 259.515 211.15 259.464C211.067 259.412 211.001 259.336 210.96 259.247C210.93 259.186 210.913 259.119 210.908 259.05C210.904 258.981 210.913 258.913 210.935 258.848C210.957 258.784 210.993 258.723 211.038 258.672C211.083 258.62 211.138 258.578 211.2 258.549C212.492 257.944 213.743 257.339 214.952 256.746C215.077 256.684 215.221 256.675 215.351 256.721C215.482 256.765 215.59 256.86 215.651 256.985C215.711 257.109 215.72 257.253 215.676 257.384C215.63 257.514 215.535 257.622 215.411 257.683L211.648 259.497C211.578 259.526 211.504 259.54 211.429 259.539ZM17.2402 258.673C17.1261 258.673 17.0153 258.634 16.925 258.565C16.8346 258.496 16.7696 258.398 16.7399 258.288C16.3583 256.934 16.052 255.559 15.8227 254.171C15.8005 254.032 15.8343 253.891 15.9163 253.778C15.9985 253.665 16.1221 253.588 16.2604 253.566C16.3987 253.544 16.54 253.578 16.6534 253.66C16.7668 253.741 16.8429 253.866 16.865 254.004C17.0733 255.367 17.3586 256.718 17.7197 258.048C17.7389 258.114 17.745 258.183 17.7375 258.251C17.73 258.319 17.7093 258.385 17.6763 258.445C17.6434 258.505 17.599 258.558 17.5457 258.601C17.4923 258.643 17.431 258.675 17.3653 258.695L17.2402 258.673ZM218.892 255.891C218.795 255.892 218.698 255.866 218.615 255.814C218.532 255.762 218.465 255.687 218.423 255.599C218.361 255.475 218.35 255.333 218.394 255.202C218.437 255.071 218.53 254.963 218.653 254.9C219.934 254.254 221.175 253.629 222.363 253.003C222.487 252.939 222.629 252.927 222.761 252.97C222.893 253.012 223.003 253.105 223.067 253.228C223.131 253.35 223.143 253.494 223.101 253.626C223.058 253.758 222.965 253.868 222.843 253.931C221.654 254.546 220.414 255.181 219.121 255.828C219.052 255.868 218.973 255.89 218.892 255.891ZM226.293 252.044C226.199 252.045 226.106 252.021 226.026 251.974C225.945 251.925 225.878 251.856 225.835 251.774C225.771 251.652 225.757 251.509 225.796 251.377C225.835 251.244 225.923 251.133 226.043 251.065C227.335 250.377 228.555 249.709 229.702 249.084C229.761 249.042 229.829 249.013 229.902 248.998C229.973 248.984 230.048 248.985 230.119 249.001C230.19 249.017 230.258 249.048 230.317 249.093C230.375 249.137 230.424 249.193 230.46 249.257C230.495 249.322 230.516 249.392 230.522 249.466C230.529 249.539 230.519 249.613 230.495 249.682C230.47 249.751 230.431 249.814 230.382 249.868C230.331 249.921 230.269 249.963 230.202 249.991C229.055 250.627 227.836 251.294 226.533 251.992C226.468 252.025 226.397 252.043 226.324 252.044H226.293ZM15.8434 250.512C15.7105 250.512 15.5825 250.461 15.4856 250.371C15.3887 250.28 15.3303 250.154 15.3224 250.022C15.3224 249.21 15.2598 248.375 15.2598 247.552C15.2598 246.968 15.2598 246.385 15.2598 245.811C15.2611 245.743 15.2763 245.674 15.3045 245.612C15.3327 245.549 15.3734 245.492 15.424 245.445C15.4747 245.399 15.5343 245.363 15.5991 245.339C15.6641 245.317 15.733 245.307 15.8018 245.311C15.8703 245.313 15.9375 245.33 15.9998 245.359C16.0619 245.387 16.1178 245.428 16.1643 245.478C16.2108 245.528 16.2469 245.588 16.2706 245.652C16.2941 245.715 16.305 245.785 16.3021 245.853C16.3021 246.416 16.3021 246.989 16.3021 247.552C16.3021 248.354 16.3021 249.167 16.3646 249.96C16.3688 250.028 16.3595 250.097 16.3372 250.162C16.3149 250.227 16.2799 250.286 16.2344 250.337C16.1888 250.389 16.1337 250.431 16.072 250.46C16.0103 250.491 15.9432 250.508 15.8748 250.512H15.8434ZM233.589 248.011C233.476 248.01 233.365 247.971 233.276 247.901C233.186 247.831 233.121 247.735 233.091 247.625C233.062 247.514 233.069 247.399 233.111 247.293C233.155 247.188 233.231 247.099 233.329 247.041C234.674 246.27 235.882 245.572 236.924 244.957C236.984 244.921 237.049 244.896 237.117 244.886C237.185 244.875 237.254 244.879 237.321 244.895C237.388 244.911 237.451 244.941 237.507 244.982C237.562 245.022 237.609 245.074 237.644 245.134C237.714 245.253 237.734 245.394 237.702 245.53C237.668 245.664 237.584 245.779 237.467 245.853C236.425 246.479 235.205 247.187 233.85 247.937C233.78 247.978 233.702 248.003 233.621 248.011H233.589ZM16.2083 242.204H16.1353C15.9977 242.184 15.8737 242.11 15.7899 241.999C15.7061 241.888 15.6692 241.748 15.6871 241.611C15.8748 240.245 16.1145 238.848 16.4272 237.441C16.4595 237.307 16.5429 237.19 16.6597 237.117C16.7764 237.042 16.9173 237.017 17.0526 237.045C17.1199 237.059 17.1834 237.087 17.2398 237.127C17.2962 237.166 17.3442 237.217 17.381 237.275C17.4178 237.333 17.4428 237.398 17.4544 237.466C17.466 237.534 17.4641 237.603 17.4487 237.67C17.1464 239.015 16.8963 240.38 16.719 241.725C16.7087 241.854 16.6507 241.975 16.5562 242.064C16.4618 242.152 16.3378 242.202 16.2083 242.204ZM18.022 234.085C17.9704 234.095 17.9173 234.095 17.8656 234.085C17.7997 234.065 17.7385 234.031 17.6854 233.988C17.6323 233.944 17.5885 233.89 17.5565 233.828C17.5245 233.767 17.505 233.7 17.499 233.631C17.493 233.563 17.5007 233.494 17.5216 233.428C17.9282 232.114 18.4077 230.78 18.9392 229.467C19 229.352 19.1012 229.265 19.223 229.221C19.345 229.177 19.4789 229.18 19.5986 229.23C19.7184 229.279 19.8154 229.372 19.8708 229.488C19.9261 229.605 19.936 229.739 19.8983 229.864C19.3874 231.146 18.9184 232.448 18.5119 233.74C18.4783 233.843 18.4123 233.932 18.3241 233.994C18.2358 234.056 18.1298 234.087 18.022 234.085ZM21.1491 226.372C21.0498 226.401 20.9438 226.397 20.8468 226.361C20.7851 226.331 20.7299 226.29 20.6844 226.238C20.639 226.186 20.6041 226.126 20.5818 226.061C20.5595 225.997 20.5504 225.928 20.5547 225.859C20.559 225.791 20.5767 225.724 20.607 225.663C21.2219 224.423 21.8995 223.181 22.6187 221.973C22.6522 221.913 22.6973 221.86 22.7513 221.819C22.8054 221.777 22.8673 221.747 22.9334 221.728C22.9995 221.711 23.0685 221.707 23.1362 221.717C23.2039 221.726 23.269 221.75 23.3275 221.785C23.4466 221.857 23.5328 221.972 23.5679 222.107C23.603 222.241 23.5841 222.384 23.5151 222.505C22.8064 223.682 22.1497 224.901 21.5451 226.132C21.4972 226.201 21.4334 226.258 21.3591 226.298C21.2848 226.338 21.202 226.36 21.1177 226.361L21.1491 226.372ZM25.3913 219.2C25.2536 219.204 25.1194 219.155 25.0161 219.065C24.9601 219.026 24.9123 218.977 24.8757 218.92C24.8389 218.863 24.814 218.799 24.8024 218.732C24.7907 218.665 24.7925 218.595 24.8078 218.53C24.823 218.464 24.8513 218.401 24.891 218.346C25.6832 217.199 26.5379 216.062 27.4135 214.978C27.501 214.872 27.6267 214.805 27.7633 214.792C27.9 214.778 28.0364 214.819 28.1431 214.906C28.2506 214.991 28.3195 215.117 28.3352 215.253C28.3508 215.39 28.3118 215.527 28.2266 215.635C27.3614 216.678 26.5275 217.814 25.7457 218.939C25.7055 219.01 25.6498 219.069 25.583 219.114C25.5162 219.16 25.44 219.189 25.3601 219.2H25.3913ZM30.6031 212.737C30.5001 212.741 30.3985 212.713 30.3114 212.658C30.2244 212.603 30.1561 212.523 30.1155 212.428C30.0749 212.334 30.064 212.229 30.084 212.127C30.104 212.027 30.1541 211.934 30.2279 211.861C31.1868 210.819 32.1979 209.86 33.2402 208.923C33.2878 208.874 33.3445 208.835 33.4072 208.81C33.4698 208.783 33.5371 208.77 33.6051 208.77C33.673 208.77 33.7403 208.783 33.8029 208.81C33.8656 208.835 33.9224 208.874 33.9698 208.923C34.0187 208.971 34.0575 209.029 34.084 209.092C34.1104 209.155 34.124 209.224 34.124 209.293C34.124 209.361 34.1104 209.429 34.084 209.493C34.0575 209.557 34.0187 209.614 33.9698 209.663C32.9275 210.58 31.9581 211.549 31.02 212.55C30.9688 212.611 30.9048 212.658 30.8327 212.691C30.7606 212.723 30.6821 212.739 30.6031 212.737Z" fill="white" fill-opacity="0.6"/>
<path d="M36.8358 207.12C36.7574 207.12 36.6799 207.103 36.6094 207.068C36.5389 207.033 36.4773 206.984 36.4293 206.921C36.3446 206.811 36.307 206.67 36.3245 206.532C36.3421 206.393 36.4134 206.268 36.523 206.182C37.0859 205.764 37.6487 205.347 38.222 204.94C38.2779 204.897 38.3421 204.866 38.4106 204.849C38.479 204.83 38.5504 204.827 38.6203 204.838C38.6901 204.849 38.7572 204.873 38.8172 204.91C38.8772 204.948 38.929 204.998 38.9693 205.055C39.0097 205.113 39.0378 205.179 39.052 205.249C39.0661 205.318 39.066 205.389 39.0518 205.458C39.0374 205.527 39.0092 205.593 38.9686 205.651C38.9282 205.709 38.8763 205.759 38.8162 205.796C38.2534 206.191 37.7009 206.598 37.1589 207.015C37.0658 207.085 36.9521 207.122 36.8358 207.12Z" fill="white" fill-opacity="0.6"/>
<path d="M270.592 144.839C270.526 144.841 270.46 144.829 270.4 144.804C270.338 144.78 270.283 144.742 270.237 144.693C270.189 144.646 270.151 144.589 270.124 144.527C270.098 144.464 270.084 144.397 270.084 144.329C270.084 144.261 270.098 144.194 270.124 144.131C270.151 144.068 270.189 144.011 270.237 143.963C270.237 143.963 270.749 143.422 271.634 142.442C271.676 142.381 271.73 142.329 271.794 142.291C271.857 142.252 271.928 142.227 272.002 142.219C272.075 142.209 272.15 142.216 272.221 142.238C272.292 142.261 272.356 142.297 272.413 142.347C272.468 142.396 272.512 142.456 272.541 142.524C272.572 142.593 272.587 142.666 272.587 142.74C272.586 142.814 272.569 142.887 272.538 142.955C272.507 143.022 272.462 143.081 272.406 143.13C271.51 144.172 270.989 144.683 270.989 144.683C270.937 144.736 270.875 144.777 270.807 144.804C270.739 144.832 270.666 144.843 270.592 144.839Z" fill="white" fill-opacity="0.6"/>
<path d="M274.762 140.138C274.637 140.137 274.515 140.094 274.418 140.013C274.37 139.965 274.331 139.909 274.305 139.846C274.278 139.784 274.265 139.717 274.265 139.648C274.265 139.58 274.278 139.513 274.305 139.451C274.331 139.388 274.37 139.331 274.418 139.283C275.221 138.324 276.117 137.199 277.076 136.042C277.162 135.934 277.287 135.866 277.424 135.85C277.56 135.834 277.697 135.873 277.806 135.959C277.86 136 277.905 136.053 277.94 136.112C277.973 136.172 277.995 136.238 278.002 136.306C278.01 136.374 278.004 136.443 277.985 136.508C277.966 136.574 277.933 136.635 277.889 136.688C276.93 137.897 276.023 138.991 275.21 139.95C275.157 140.017 275.088 140.068 275.01 140.101C274.932 140.134 274.847 140.147 274.762 140.138ZM279.974 133.572C279.862 133.567 279.754 133.531 279.661 133.467C279.551 133.38 279.48 133.255 279.463 133.117C279.446 132.978 279.482 132.838 279.568 132.727C280.37 131.685 281.203 130.538 282.048 129.36C282.129 129.247 282.25 129.171 282.387 129.147C282.523 129.123 282.664 129.155 282.777 129.235C282.891 129.315 282.968 129.438 282.991 129.574C283.015 129.711 282.983 129.852 282.903 129.965C282.048 131.153 281.214 132.29 280.39 133.363C280.349 133.427 280.294 133.481 280.229 133.52C280.164 133.56 280.091 133.585 280.015 133.592L279.974 133.572ZM284.873 126.723C284.777 126.726 284.682 126.703 284.6 126.654C284.517 126.605 284.45 126.535 284.404 126.451C284.36 126.365 284.341 126.27 284.347 126.175C284.355 126.079 284.388 125.987 284.446 125.91C285.207 124.774 285.977 123.606 286.728 122.398C286.803 122.282 286.92 122.2 287.054 122.168C287.188 122.138 287.329 122.16 287.448 122.231C287.563 122.306 287.644 122.424 287.675 122.558C287.704 122.693 287.678 122.833 287.603 122.95C286.884 124.107 286.114 125.295 285.31 126.494C285.266 126.56 285.208 126.615 285.14 126.654C285.07 126.694 284.994 126.718 284.915 126.723H284.873ZM289.334 119.593C289.242 119.595 289.151 119.57 289.074 119.521C289.014 119.487 288.961 119.442 288.92 119.388C288.878 119.334 288.848 119.272 288.829 119.206C288.812 119.139 288.808 119.071 288.817 119.003C288.827 118.935 288.851 118.87 288.886 118.812C289.595 117.581 290.273 116.341 290.888 115.143C290.95 115.019 291.061 114.927 291.193 114.885C291.324 114.843 291.468 114.855 291.59 114.919C291.714 114.983 291.807 115.092 291.849 115.224C291.891 115.355 291.878 115.499 291.815 115.622C291.189 116.842 290.502 118.082 289.783 119.333C289.741 119.406 289.682 119.468 289.611 119.513C289.541 119.559 289.46 119.586 289.375 119.593H289.334ZM293.201 112.12C293.129 112.135 293.054 112.135 292.982 112.12C292.92 112.092 292.864 112.052 292.817 112.002C292.771 111.952 292.735 111.893 292.711 111.829C292.689 111.764 292.678 111.696 292.682 111.628C292.686 111.56 292.703 111.494 292.732 111.432C293.327 110.13 293.879 108.837 294.358 107.586C294.383 107.521 294.42 107.462 294.466 107.412C294.514 107.361 294.571 107.321 294.634 107.293C294.696 107.265 294.764 107.25 294.834 107.248C294.903 107.246 294.971 107.258 295.036 107.283C295.164 107.335 295.268 107.434 295.324 107.561C295.381 107.687 295.386 107.831 295.338 107.961C294.838 109.232 294.295 110.546 293.68 111.859C293.635 111.935 293.571 111.999 293.494 112.044C293.417 112.09 293.332 112.115 293.243 112.12H293.201ZM296.235 104.282H296.078C295.946 104.238 295.837 104.146 295.773 104.023C295.708 103.9 295.694 103.758 295.734 103.625C296.151 102.259 296.505 100.904 296.776 99.6013C296.807 99.4678 296.888 99.3514 297.002 99.2773C297.118 99.2032 297.257 99.1773 297.391 99.2053C297.526 99.2354 297.642 99.3162 297.719 99.4308C297.795 99.5455 297.823 99.6851 297.798 99.8202C297.506 101.155 297.151 102.541 296.756 103.99C296.71 104.078 296.642 104.152 296.558 104.204C296.473 104.256 296.375 104.282 296.276 104.282H296.235ZM297.986 96.0678H297.933C297.797 96.0546 297.671 95.9881 297.583 95.8827C297.495 95.7773 297.453 95.6416 297.464 95.505C297.464 95.0672 297.548 94.6398 297.569 94.202C297.569 93.2327 297.663 92.2736 297.694 91.346C297.693 91.2771 297.707 91.209 297.734 91.1456C297.761 91.0822 297.801 91.025 297.851 90.9772C297.901 90.9295 297.959 90.8923 298.024 90.868C298.088 90.8436 298.157 90.8324 298.225 90.8353C298.362 90.8407 298.492 90.899 298.588 90.9982C298.683 91.0972 298.736 91.2294 298.736 91.3668C298.736 92.3154 298.663 93.2743 298.611 94.2646C298.611 94.7128 298.548 95.1505 298.507 95.5987C298.492 95.7268 298.43 95.8451 298.334 95.9314C298.239 96.0176 298.115 96.0662 297.986 96.0678ZM298.225 87.6665C298.089 87.6665 297.958 87.6131 297.861 87.5175C297.763 87.4221 297.707 87.2921 297.704 87.1558C297.704 85.7382 297.6 84.3414 297.495 82.9864C297.49 82.9184 297.497 82.8501 297.519 82.7852C297.541 82.7205 297.574 82.6606 297.618 82.6091C297.664 82.5575 297.718 82.5156 297.78 82.4854C297.84 82.4554 297.907 82.4379 297.975 82.434C298.043 82.4282 298.113 82.4361 298.177 82.4572C298.243 82.4783 298.304 82.512 298.356 82.5566C298.409 82.6011 298.452 82.6556 298.482 82.7169C298.514 82.7781 298.533 82.8449 298.538 82.9134C298.642 84.2789 298.715 85.6964 298.746 87.1349C298.746 87.2723 298.693 87.4046 298.598 87.5036C298.503 87.6027 298.373 87.6611 298.236 87.6665H298.225ZM297.548 79.3278C297.422 79.3268 297.301 79.2813 297.204 79.1993C297.109 79.1171 297.047 79.0039 297.026 78.8796C296.828 77.4828 296.568 76.1069 296.266 74.7935C296.236 74.6554 296.261 74.5107 296.337 74.3915C296.413 74.2722 296.534 74.1881 296.673 74.1577C296.811 74.1273 296.955 74.1531 297.075 74.2293C297.194 74.3055 297.278 74.426 297.308 74.5642C297.61 75.8984 297.87 77.3056 298.079 78.7336C298.097 78.8701 298.062 79.0082 297.981 79.119C297.898 79.2299 297.777 79.3047 297.641 79.3278H297.548ZM295.661 71.1558C295.551 71.1571 295.443 71.1236 295.354 71.0599C295.264 70.9962 295.196 70.9058 295.161 70.8013C294.735 69.4894 294.238 68.2019 293.67 66.9447C293.641 66.8824 293.625 66.815 293.623 66.7465C293.62 66.678 293.63 66.6095 293.654 66.5452C293.678 66.4809 293.715 66.4217 293.761 66.3714C293.808 66.321 293.863 66.2802 293.926 66.2515C293.988 66.2228 294.055 66.2066 294.123 66.2039C294.193 66.2011 294.261 66.2119 294.326 66.2357C294.389 66.2594 294.449 66.2955 294.499 66.3421C294.549 66.3886 294.59 66.4447 294.618 66.5069C295.202 67.8012 295.715 69.127 296.151 70.4782C296.195 70.6082 296.185 70.75 296.124 70.8729C296.064 70.9957 295.957 71.0899 295.828 71.1349C295.772 71.141 295.716 71.1375 295.661 71.1244V71.1558ZM292.18 63.5362C292.091 63.5369 292.003 63.5153 291.926 63.4734C291.847 63.4315 291.781 63.3707 291.731 63.2965C291.013 62.1224 290.212 61.0008 289.334 59.9401C289.248 59.8334 289.207 59.6969 289.221 59.5603C289.235 59.4237 289.301 59.298 289.407 59.2105C289.458 59.1657 289.519 59.1319 289.584 59.1108C289.649 59.0896 289.717 59.0819 289.785 59.0877C289.853 59.0935 289.919 59.1129 289.98 59.1448C290.04 59.1766 290.093 59.2202 290.136 59.273C291.042 60.3612 291.87 61.5105 292.617 62.7128C292.655 62.7705 292.681 62.8353 292.693 62.9032C292.705 62.9712 292.703 63.0408 292.688 63.108C292.673 63.1753 292.643 63.2386 292.602 63.2943C292.561 63.35 292.51 63.3968 292.451 63.432C292.369 63.4816 292.275 63.5069 292.18 63.505V63.5362ZM286.822 57.105C286.696 57.1027 286.575 57.0587 286.478 56.9799C285.452 56.0643 284.358 55.2281 283.206 54.4782C283.144 54.4432 283.09 54.3959 283.048 54.3395C283.004 54.2829 282.974 54.2184 282.957 54.1496C282.941 54.081 282.937 54.0095 282.949 53.9397C282.961 53.87 282.987 53.8033 283.025 53.7437C283.063 53.6842 283.114 53.6331 283.172 53.5935C283.23 53.554 283.296 53.5267 283.367 53.5135C283.436 53.5003 283.507 53.5014 283.576 53.5168C283.646 53.532 283.71 53.5613 283.768 53.6026C284.968 54.3812 286.107 55.2488 287.176 56.1981C287.273 56.2973 287.327 56.43 287.327 56.5681C287.327 56.7063 287.273 56.8389 287.176 56.9382C287.079 57.0254 286.953 57.0736 286.822 57.0736V57.105ZM279.807 52.5499C279.735 52.5642 279.661 52.5642 279.588 52.5499C278.333 51.9784 277.041 51.4908 275.721 51.0906C275.583 51.0505 275.466 50.9572 275.397 50.831C275.328 50.705 275.31 50.5566 275.351 50.4183C275.391 50.2801 275.484 50.1635 275.611 50.0941C275.736 50.0247 275.886 50.0082 276.023 50.0482C277.389 50.4577 278.727 50.9593 280.026 51.5492C280.088 51.5773 280.144 51.6174 280.19 51.6675C280.237 51.7175 280.273 51.7762 280.296 51.8404C280.319 51.9046 280.33 51.9727 280.327 52.0409C280.323 52.109 280.306 52.1758 280.276 52.2372C280.233 52.3238 280.166 52.3961 280.082 52.446C279.999 52.4958 279.904 52.521 279.807 52.5186V52.5499ZM271.781 50.1003H271.688C270.326 49.8635 268.95 49.7068 267.57 49.6314C267.502 49.6274 267.435 49.6099 267.373 49.5799C267.311 49.55 267.255 49.5081 267.21 49.4569C267.164 49.4055 267.13 49.3457 267.107 49.2809C267.086 49.216 267.076 49.1474 267.08 49.0789C267.079 49.0089 267.094 48.9397 267.122 48.8758C267.15 48.8118 267.193 48.7547 267.244 48.7083C267.297 48.662 267.359 48.6273 267.426 48.6067C267.493 48.5861 267.563 48.58 267.633 48.589C269.051 48.6686 270.464 48.8287 271.864 49.0685C272 49.0939 272.121 49.1713 272.2 49.2841C272.28 49.397 272.313 49.5365 272.292 49.673C272.265 49.7878 272.2 49.89 272.107 49.9622C272.014 50.0343 271.898 50.0721 271.781 50.0691V50.1003Z" fill="white" fill-opacity="0.6"/>
<path d="M261.285 49.7981C261.216 49.8037 261.147 49.7956 261.082 49.7744C261.016 49.7533 260.956 49.7194 260.904 49.675C260.852 49.6305 260.809 49.5761 260.778 49.5149C260.746 49.4538 260.728 49.3871 260.721 49.3187C260.716 49.2503 260.725 49.1814 260.745 49.116C260.767 49.0507 260.8 48.9901 260.845 48.9379C260.935 48.8323 261.063 48.7668 261.201 48.7558C261.892 48.6479 262.587 48.5783 263.286 48.5473C263.424 48.539 263.56 48.5859 263.664 48.6778C263.767 48.7697 263.83 48.899 263.838 49.0372C263.847 49.1754 263.8 49.3113 263.708 49.4149C263.616 49.5185 263.487 49.5814 263.348 49.5897C262.087 49.6626 261.336 49.7773 261.336 49.7773L261.285 49.7981Z" fill="white" fill-opacity="0.6"/>
<path d="M17.3654 113.194H17.0423C16.2234 113.102 15.4743 112.689 14.9576 112.048L1.71981 95.8908C1.45239 95.5711 1.25158 95.2012 1.12916 94.8028C1.00674 94.4045 0.96519 93.9856 1.00695 93.571C1.0487 93.1563 1.17293 92.7542 1.37232 92.3882C1.57171 92.0223 1.84224 91.6999 2.16801 91.44L33.5947 65.7462C33.9144 65.4787 34.2843 65.278 34.6827 65.1555C35.081 65.0331 35.4999 64.9916 35.9145 65.0333C36.3292 65.075 36.7312 65.1993 37.0973 65.3987C37.4632 65.5981 37.7856 65.8685 38.0455 66.1944L51.2416 82.3403C51.5091 82.6599 51.7098 83.0298 51.8323 83.4282C51.9547 83.8266 51.9962 84.2454 51.9545 84.66C51.9127 85.0747 51.7885 85.4769 51.5892 85.8428C51.3897 86.2088 51.1192 86.5311 50.7934 86.7911L19.3667 112.475C18.8041 112.941 18.0961 113.195 17.3654 113.194ZM35.596 66.0797C35.108 66.081 34.6344 66.2462 34.2514 66.5488L2.82468 92.2426C2.61291 92.4197 2.43844 92.6372 2.3114 92.8823C2.18435 93.1275 2.10727 93.3954 2.08463 93.6706C2.03242 94.2329 2.2006 94.7934 2.55368 95.2341L15.7498 111.37C15.9241 111.587 16.1403 111.768 16.3856 111.899C16.6309 112.032 16.9003 112.115 17.1778 112.141C17.737 112.194 18.2945 112.025 18.7309 111.671L50.1367 85.9781C50.3562 85.805 50.5387 85.5894 50.6732 85.3443C50.8077 85.0994 50.8916 84.8297 50.9198 84.5516C50.948 84.2734 50.9199 83.9925 50.8373 83.7254C50.7548 83.4584 50.6193 83.2106 50.439 82.997L37.2429 66.8823C37.0477 66.6319 36.7978 66.4295 36.5124 66.2904C36.227 66.1513 35.9135 66.0793 35.596 66.0797Z" fill="white" fill-opacity="0.6"/>
<path d="M1.56306 93.9832C1.42483 93.9832 1.29227 93.9283 1.19453 93.8306C1.09679 93.7328 1.04188 93.6003 1.04188 93.462C1.03471 93.3941 1.04125 93.3255 1.0611 93.2601C1.08095 93.1947 1.11371 93.134 1.15745 93.0815C1.20118 93.0291 1.255 92.9858 1.31572 92.9546C1.37644 92.9232 1.44282 92.9044 1.51094 92.8992L27.7051 90.6269L35.1475 65.4125C35.1653 65.3461 35.1965 65.284 35.239 65.2298C35.2816 65.1757 35.3346 65.1307 35.395 65.0976C35.4554 65.0645 35.5218 65.044 35.5903 65.0372C35.6588 65.0304 35.728 65.0375 35.7936 65.0581C35.9244 65.099 36.0338 65.1898 36.0983 65.3107C36.1626 65.4317 36.1768 65.5731 36.1376 65.7044L28.6119 91.2627C28.5845 91.3637 28.5269 91.4537 28.4468 91.5208C28.3667 91.5879 28.2678 91.6288 28.1637 91.6379L1.61518 93.9832H1.56306Z" fill="white" fill-opacity="0.6"/>
<path d="M29.1853 87.8961C29.047 87.8961 28.9144 87.8412 28.8167 87.7434C28.719 87.6456 28.6641 87.5131 28.6641 87.3749C28.6641 87.2367 28.719 87.1041 28.8167 87.0064C28.9144 86.9087 29.047 86.8538 29.1853 86.8538L51.3455 84.3209C51.4817 84.3089 51.6172 84.3499 51.7241 84.4353C51.8308 84.5207 51.9005 84.6439 51.9188 84.7795C51.9275 84.848 51.9225 84.9175 51.9042 84.9841C51.8857 85.0507 51.8542 85.113 51.8116 85.1673C51.7689 85.2215 51.7158 85.2668 51.6555 85.3006C51.5952 85.3342 51.5288 85.3555 51.4602 85.3632L29.2791 87.8961H29.1853Z" fill="white" fill-opacity="0.6"/>
<path d="M17.3338 113.193C17.2821 113.203 17.2291 113.203 17.1775 113.193C17.1116 113.174 17.0505 113.14 16.9979 113.096C16.9452 113.052 16.902 112.998 16.8709 112.936C16.8397 112.874 16.8212 112.807 16.8166 112.739C16.8119 112.67 16.8212 112.602 16.8439 112.537L23.7338 91.3251C23.755 91.2566 23.7895 91.193 23.8353 91.1379C23.8811 91.0828 23.9372 91.0372 24.0007 91.0039C24.0641 90.9705 24.1335 90.9498 24.2048 90.9432C24.2762 90.9366 24.3481 90.9442 24.4165 90.9654C24.485 90.9867 24.5486 91.0212 24.6037 91.0669C24.6588 91.1127 24.7044 91.169 24.7378 91.2323C24.7711 91.2957 24.7917 91.3651 24.7983 91.4364C24.8049 91.5078 24.7974 91.5798 24.7762 91.6482L17.8862 112.86C17.8435 112.968 17.7662 113.06 17.6664 113.12C17.5666 113.18 17.4497 113.206 17.3338 113.193Z" fill="white" fill-opacity="0.6"/>
<path d="M309.878 198.801C309.52 198.799 309.165 198.724 308.836 198.583L278.9 185.594C278.579 185.459 278.288 185.263 278.045 185.013C277.802 184.764 277.61 184.47 277.482 184.146C277.216 183.495 277.216 182.765 277.482 182.113L284.142 166.739C284.424 166.097 284.948 165.592 285.6 165.334C286.253 165.077 286.98 165.086 287.624 165.363L317.57 178.34C317.889 178.479 318.178 178.68 318.419 178.93C318.661 179.18 318.85 179.476 318.978 179.8C319.112 180.12 319.181 180.464 319.181 180.811C319.181 181.158 319.112 181.501 318.978 181.821L312.307 197.175C312.17 197.494 311.971 197.783 311.723 198.024C311.474 198.266 311.18 198.455 310.858 198.583C310.548 198.717 310.216 198.791 309.878 198.801ZM286.644 166.187C286.331 166.187 286.025 166.28 285.765 166.452C285.503 166.624 285.298 166.869 285.175 167.156L278.462 182.583C278.298 182.97 278.294 183.406 278.449 183.797C278.606 184.187 278.91 184.5 279.296 184.667L309.243 197.655C309.636 197.816 310.078 197.816 310.472 197.655C310.668 197.578 310.847 197.464 310.997 197.317C311.148 197.17 311.267 196.994 311.348 196.8L318.019 181.415C318.18 181.025 318.18 180.586 318.019 180.196C317.944 179.998 317.83 179.817 317.683 179.665C317.536 179.512 317.36 179.391 317.164 179.309L287.238 166.322C287.051 166.236 286.849 166.19 286.644 166.187Z" fill="white" fill-opacity="0.6"/>
<path d="M297.412 184.397C297.325 184.398 297.238 184.377 297.162 184.335C297.085 184.293 297.02 184.231 296.975 184.157L285.509 166.041C285.473 165.983 285.448 165.918 285.437 165.85C285.425 165.783 285.428 165.714 285.444 165.646C285.459 165.579 285.487 165.517 285.527 165.461C285.567 165.405 285.618 165.358 285.676 165.321C285.733 165.285 285.798 165.261 285.866 165.25C285.933 165.238 286.003 165.24 286.07 165.256C286.137 165.271 286.199 165.299 286.256 165.339C286.312 165.379 286.358 165.43 286.395 165.489L297.632 183.302L318.322 179.331C318.39 179.316 318.459 179.314 318.527 179.326C318.594 179.338 318.659 179.364 318.716 179.402C318.773 179.441 318.823 179.49 318.861 179.547C318.899 179.604 318.925 179.669 318.937 179.737C318.962 179.874 318.931 180.014 318.853 180.13C318.776 180.244 318.656 180.324 318.52 180.352L297.486 184.397H297.412Z" fill="white" fill-opacity="0.6"/>
<path d="M310.483 198.708C310.396 198.708 310.312 198.687 310.235 198.648C310.16 198.608 310.094 198.549 310.045 198.479L300.059 183.625C299.983 183.51 299.956 183.37 299.984 183.236C300.012 183.101 300.092 182.983 300.205 182.906C300.261 182.867 300.325 182.84 300.392 182.826C300.459 182.813 300.528 182.813 300.595 182.826C300.663 182.84 300.726 182.867 300.783 182.906C300.84 182.945 300.887 182.994 300.924 183.052L310.91 197.947C310.986 198.064 311.014 198.206 310.987 198.342C310.959 198.478 310.88 198.598 310.764 198.677C310.674 198.712 310.578 198.722 310.483 198.708Z" fill="white" fill-opacity="0.6"/>
<path d="M278.045 184.667C277.92 184.669 277.798 184.626 277.703 184.545C277.607 184.465 277.543 184.352 277.524 184.229C277.513 184.162 277.516 184.093 277.533 184.026C277.55 183.96 277.579 183.897 277.619 183.842C277.66 183.787 277.711 183.739 277.77 183.705C277.829 183.669 277.894 183.645 277.962 183.636L295.682 180.737C295.75 180.726 295.82 180.73 295.887 180.746C295.954 180.761 296.018 180.79 296.074 180.831C296.13 180.872 296.178 180.923 296.215 180.983C296.25 181.041 296.275 181.107 296.286 181.175C296.297 181.244 296.295 181.313 296.278 181.382C296.262 181.449 296.233 181.512 296.192 181.569C296.152 181.625 296.1 181.672 296.042 181.708C295.982 181.745 295.916 181.769 295.848 181.78L278.128 184.678L278.045 184.667Z" fill="white" fill-opacity="0.6"/>
<path d="M104.234 66.6529C104.015 66.6523 103.797 66.6172 103.588 66.5487L80.9378 59.0438C80.4164 58.8681 79.9855 58.4934 79.7391 58.0014C79.4933 57.5091 79.4521 56.9396 79.6245 56.4171L83.4812 44.7844C83.6551 44.2638 84.0274 43.8328 84.5173 43.5849C85.0071 43.3371 85.5749 43.2924 86.0975 43.4607L108.748 50.9655C109.269 51.1415 109.699 51.5164 109.945 52.0084C110.191 52.5004 110.232 53.0697 110.061 53.5923L106.215 65.2249C106.077 65.6409 105.811 66.0028 105.455 66.2591C105.1 66.5155 104.673 66.6533 104.234 66.6529ZM103.911 65.5584C104.165 65.6627 104.449 65.6627 104.703 65.5584C104.826 65.4969 104.935 65.4117 105.024 65.308C105.113 65.2042 105.182 65.0839 105.225 64.9538L109.092 53.3317C109.196 53.078 109.196 52.7933 109.092 52.5395C108.97 52.2945 108.757 52.1074 108.497 52.0184L85.8473 44.5134C85.5853 44.4289 85.3005 44.4514 85.0551 44.576C84.814 44.7001 84.6309 44.9132 84.5443 45.1702L80.6877 56.8027C80.5887 57.0575 80.5887 57.3401 80.6877 57.5949C80.8142 57.838 81.0314 58.0215 81.2922 58.1056L103.911 65.5584Z" fill="white" fill-opacity="0.6"/>
<path d="M94.384 56.98C94.3033 56.9791 94.2237 56.96 94.1515 56.9239C94.0793 56.8877 94.0161 56.8355 93.9671 56.7714L84.4297 44.3258C84.3552 44.2161 84.3254 44.082 84.3464 43.951C84.3674 43.82 84.4374 43.7019 84.5425 43.6208C84.6475 43.5397 84.7795 43.5018 84.9115 43.5147C85.0435 43.5275 85.1656 43.5902 85.2531 43.69L94.5403 55.8541L109.258 51.6848C109.324 51.6658 109.395 51.6602 109.463 51.6684C109.532 51.6765 109.598 51.6981 109.657 51.7321C109.718 51.766 109.771 51.8115 109.813 51.866C109.855 51.9206 109.886 51.983 109.905 52.0496C109.939 52.1822 109.921 52.3234 109.853 52.4426C109.785 52.5616 109.672 52.6488 109.539 52.6855L94.4882 57.0007L94.384 56.98Z" fill="white" fill-opacity="0.6"/>
<path d="M104.828 66.5488C104.75 66.55 104.672 66.5327 104.601 66.4983C104.531 66.4638 104.469 66.4133 104.422 66.3507L96.1873 56.1566C96.1003 56.0488 96.0596 55.9107 96.0742 55.7729C96.0889 55.6352 96.1577 55.5088 96.2654 55.4218C96.3733 55.3346 96.5113 55.294 96.6491 55.3086C96.787 55.3233 96.9132 55.392 97.0004 55.4999L105.235 65.7045C105.32 65.8125 105.359 65.9498 105.344 66.0864C105.328 66.2232 105.259 66.3481 105.151 66.4341C105.059 66.507 104.946 66.5473 104.828 66.5488Z" fill="white" fill-opacity="0.6"/>
<path d="M80.2603 58.4186C80.1918 58.4269 80.1224 58.4215 80.0561 58.4029C79.9897 58.3843 79.9276 58.3528 79.8735 58.3102C79.8192 58.2676 79.774 58.2148 79.7402 58.1546C79.7064 58.0945 79.6848 58.0284 79.6766 57.9599C79.6684 57.8915 79.6737 57.8221 79.6923 57.7557C79.7109 57.6893 79.7424 57.6273 79.785 57.5731C79.8276 57.519 79.8804 57.4737 79.9405 57.4398C80.0006 57.4061 80.0668 57.3845 80.1352 57.3763L92.831 54.1242C92.8974 54.1069 92.9666 54.103 93.0344 54.1125C93.1023 54.122 93.1677 54.1449 93.2268 54.1797C93.2859 54.2146 93.3375 54.2608 93.3787 54.3156C93.4198 54.3705 93.4498 54.4329 93.4668 54.4994C93.484 54.5651 93.4877 54.6336 93.4781 54.7008C93.4684 54.7681 93.4455 54.8326 93.4106 54.8909C93.3755 54.9491 93.3294 54.9998 93.2746 55.0399C93.2198 55.0802 93.1576 55.1089 93.0915 55.1248L80.3959 58.3873L80.2603 58.4186Z" fill="white" fill-opacity="0.6"/>
</svg>
